<svg width="187" height="48" viewBox="0 0 187 48" fill="none" xmlns="http://www.w3.org/2000/svg">
<path d="M36.48 47L33.28 37.912H13.888L10.688 47H0.384L17.6 0.919998H29.504L47.168 47H36.48ZM16.832 29.4H30.272L23.552 10.2L16.832 29.4ZM50.7625 47V0.919998H60.1065V17.624C62.2825 14.68 65.5465 12.952 70.0265 12.952C79.5625 12.952 84.6825 20.44 84.6825 30.36C84.6825 40.28 79.5625 47.768 70.0265 47.768C65.3545 47.768 62.0265 45.912 59.8505 42.776V47H50.7625ZM59.9785 30.36C59.9785 36.248 62.2825 40.152 67.5945 40.152C72.8425 40.152 75.1465 36.248 75.1465 30.36C75.1465 24.472 72.8425 20.568 67.5945 20.568C62.2825 20.568 59.9785 24.472 59.9785 30.36ZM105.508 47.768C94.436 47.768 88.292 40.28 88.292 30.36C88.292 20.44 94.436 12.952 105.508 12.952C116.58 12.952 122.724 20.44 122.724 30.36C122.724 40.28 116.58 47.768 105.508 47.768ZM97.764 30.36C97.764 36.248 100.068 40.152 105.508 40.152C110.948 40.152 113.252 36.248 113.252 30.36C113.252 24.472 110.948 20.568 105.508 20.568C100.068 20.568 97.764 24.472 97.764 30.36ZM137.044 33.112C137.044 36.76 138.516 39.704 142.868 39.704C146.068 39.704 149.716 37.464 149.716 31.832H149.78V13.72H159.124V47H150.036V42.392C147.732 45.464 144.276 47.768 139.54 47.768C132.244 47.768 127.7 43.032 127.7 34.2V13.72H137.044V33.112ZM168.905 3.48H178.312V13.72H186.505V20.696H178.312V37.08C178.312 39.064 179.017 40.024 181.385 40.024H186.505V47H178.825C173.321 47 168.905 45.528 168.905 38.04V20.696H163.209V13.72H168.905V3.48Z" fill="black"/>
</svg>
