<svg width="1816" height="456" viewBox="0 0 1816 456" fill="none" xmlns="http://www.w3.org/2000/svg">
<path opacity="0.38" d="M23.3317 351.438V105.519C23.3317 91.542 21.8207 81.5315 18.7986 75.4874C15.7766 69.4433 9.54361 66.4212 0.0997077 66.4212V48.8556L116.26 0.125051L125.326 18.2573C117.015 18.2573 109.082 23.1682 101.527 32.9898C94.7276 42.4337 91.3278 56.7885 91.3278 76.054V307.807C91.3278 338.028 93.9721 356.16 99.2607 362.204C108.327 373.537 117.204 380.337 125.892 382.603C145.914 387.136 168.012 389.403 192.189 389.403V405.268C141.947 426.423 113.238 437 106.06 437C99.2607 437 89.8168 433.978 77.7286 427.934C65.6404 421.512 53.5522 411.313 41.464 397.336C29.3758 383.359 23.3317 368.06 23.3317 351.438ZM231.946 379.203V53.9553C231.946 51.311 253.478 42.056 296.542 26.1902C339.607 9.94672 364.35 1.82496 370.771 1.82496C377.193 1.82496 386.826 9.56896 399.67 25.0569C412.891 40.5449 419.502 54.5219 419.502 66.9879V215.446H447.267V229.045L419.502 243.211V353.138C419.502 373.915 428.568 386.192 446.7 389.969V402.435L384.937 437C376.627 433.6 368.883 428.123 361.705 420.568C354.528 412.635 350.939 405.268 350.939 398.469V243.211H299.942V349.738C299.942 363.715 301.453 373.726 304.475 379.77C307.497 385.814 313.73 388.836 323.174 388.836V406.402L207.014 455.132L197.948 437C206.259 437 214.192 432.089 221.747 422.268C228.546 412.824 231.946 398.469 231.946 379.203ZM322.041 54.5219C314.486 54.5219 307.12 57.3551 299.942 63.0214V230.179L333.374 215.446H350.939V96.4529C350.939 68.4989 341.306 54.5219 322.041 54.5219ZM594.968 83.9869C594.968 63.2103 585.713 50.9332 567.203 47.1557V34.6897C608.001 12.0244 628.588 0.691677 628.966 0.691677C632.366 0.691677 638.41 4.46923 647.099 12.0243C655.787 19.2017 661.076 26.9457 662.964 35.2564C663.72 34.5009 675.241 28.6456 697.529 17.6907C719.817 6.35802 731.149 0.691677 731.527 0.691677C739.082 0.691677 747.393 5.22475 756.459 14.2909C773.836 31.6677 782.524 54.8997 782.524 83.9869V384.303C782.524 387.703 762.314 397.336 721.894 413.201C681.474 429.067 656.354 437 646.532 437C628.777 437 614.045 425.29 602.334 401.869C560.781 425.29 534.527 437 523.572 437C512.617 437 501.851 429.067 491.274 413.201C481.075 396.958 475.975 382.036 475.975 368.437V83.9869C475.975 63.2103 466.72 50.9332 448.21 47.1557V34.6897L509.973 0.125051C518.284 3.52486 526.028 9.19119 533.205 17.1241C540.382 24.6792 543.971 31.6677 543.971 38.0895V326.506C543.971 362.393 555.115 380.337 577.403 380.337C583.069 380.337 588.924 379.203 594.968 376.937V83.9869ZM663.531 332.173C663.531 344.261 665.797 355.594 670.331 366.171C675.241 376.37 681.852 381.47 690.163 381.47C698.473 381.47 706.406 379.77 713.961 376.37V104.386C713.961 84.7424 709.995 71.7098 702.062 65.288C694.129 58.4884 681.285 54.8997 663.531 54.5219V332.173ZM946.879 351.438V105.519C946.879 91.542 945.368 81.5315 942.346 75.4874C939.324 69.4433 933.091 66.4212 923.647 66.4212V48.8556L1039.81 0.125051L1048.87 18.2573C1040.56 18.2573 1032.63 23.1682 1025.07 32.9898C1018.27 42.4337 1014.88 56.7885 1014.88 76.054V307.807C1014.88 338.028 1017.52 356.16 1022.81 362.204C1031.87 373.537 1040.75 380.337 1049.44 382.603C1069.46 387.136 1091.56 389.403 1115.74 389.403V405.268C1065.49 426.423 1036.78 437 1029.61 437C1022.81 437 1013.36 433.978 1001.28 427.934C989.188 421.512 977.099 411.313 965.011 397.336C952.923 383.359 946.879 368.06 946.879 351.438ZM1233.69 55.6552C1229.91 55.6552 1226.51 57.544 1223.49 61.3215V210.913H1303.38V224.512L1275.05 238.678H1223.49V295.341C1223.49 337.272 1227.64 361.827 1235.96 369.004C1248.42 379.581 1262.02 385.625 1276.75 387.136C1291.49 388.647 1307.35 389.403 1324.35 389.403V405.835C1322.46 405.835 1308.48 411.124 1282.42 421.701C1256.35 431.9 1240.49 437 1234.82 437C1223.11 437 1206.87 427.934 1186.09 409.802C1165.69 391.669 1155.49 372.026 1155.49 350.872V52.822C1155.49 50.1777 1177.03 40.9227 1220.09 25.0569C1263.53 8.81343 1288.46 0.691677 1294.89 0.691677C1297.15 0.691677 1299.8 6.16914 1302.82 17.1241C1305.84 28.079 1309.24 41.3005 1313.02 56.7885C1317.17 72.2765 1321.33 83.798 1325.48 91.3532C1330.02 98.5305 1338.33 102.119 1350.42 102.119V113.452C1342.1 117.229 1327.94 124.029 1307.92 133.851C1288.27 143.295 1277.7 148.017 1276.19 148.017C1270.52 148.017 1263.34 132.717 1254.65 102.119C1245.97 71.1432 1238.98 55.6552 1233.69 55.6552ZM1384.58 372.404V93.053C1384.58 80.5871 1381.94 69.821 1376.65 60.7549C1371.36 51.6888 1364.75 47.1557 1356.82 47.1557V34.6897C1359.46 34.312 1380.05 22.7904 1418.58 0.125051C1421.22 0.880553 1424.43 2.01382 1428.21 3.52485C1431.99 4.65812 1436.9 8.2468 1442.95 14.2909C1449.37 20.335 1452.58 27.3235 1452.58 35.2564C1454.84 34.1231 1461.27 30.5344 1471.84 24.4903C1499.8 8.62455 1516.42 0.691677 1521.71 0.691677C1533.8 0.691677 1545.13 8.62455 1555.71 24.4903C1566.28 40.3561 1571.57 54.8997 1571.57 68.1212V353.138C1571.57 373.915 1580.83 386.192 1599.34 389.969V402.435L1537.57 437C1529.26 433.6 1521.52 428.123 1514.34 420.568C1507.16 412.635 1503.57 405.268 1503.57 398.469V120.818C1503.57 97.0195 1499.99 80.776 1492.81 72.0876C1486.01 63.3992 1472.6 59.055 1452.58 59.055V349.738C1452.58 364.849 1454.47 375.237 1458.24 380.903C1462.02 386.192 1467.88 388.836 1475.81 388.836V406.402L1359.65 455.132L1350.58 437C1358.14 437 1365.51 432.467 1372.68 423.401C1380.62 412.824 1384.58 395.825 1384.58 372.404ZM1662.62 256.244C1653.18 256.244 1645.06 249.066 1638.26 234.712C1631.46 220.357 1628.06 202.791 1628.06 182.015V64.1547C1628.06 56.9773 1647.89 44.7003 1687.55 27.3235C1727.22 9.56894 1750.07 0.691677 1756.12 0.691677C1760.65 0.691677 1767.07 8.2468 1775.38 23.3571C1777.27 27.1346 1779.92 32.2343 1783.32 38.6562C1787.09 45.078 1790.11 50.3666 1792.38 54.5219C1797.29 63.5881 1803.53 68.1212 1811.08 68.1212V79.4538C1805.04 82.0981 1796.91 86.0646 1786.71 91.3532C1762.92 104.575 1750.07 111.185 1748.18 111.185C1742.52 111.185 1735.34 100.042 1726.65 77.7539C1718.34 55.4663 1711.54 44.3225 1706.25 44.3225C1699.45 44.3225 1696.05 49.9889 1696.05 61.3215V187.681C1696.05 202.791 1699.45 210.346 1706.25 210.346C1707.76 210.346 1719.47 205.436 1741.38 195.614C1763.29 185.792 1776.52 180.881 1781.05 180.881C1790.11 180.881 1798.05 188.248 1804.85 202.98C1812.02 217.335 1815.61 235.845 1815.61 258.51V379.203C1815.61 386.381 1793.89 398.847 1750.45 416.601C1707.39 433.978 1682.64 442.666 1676.22 442.666C1673.58 442.666 1670.55 439.455 1667.16 433.034C1663.76 426.612 1659.22 417.546 1653.56 405.835C1648.27 393.747 1643.36 383.736 1638.82 375.804C1634.67 367.871 1628.81 363.904 1621.26 363.904V352.572C1627.3 349.927 1635.23 345.961 1645.06 340.672C1669.23 327.451 1682.27 320.84 1684.15 320.84C1689.82 320.84 1697.75 333.873 1707.95 359.938C1718.53 386.003 1726.46 399.036 1731.75 399.036C1735.53 399.036 1739.12 397.524 1742.52 394.502C1745.92 391.48 1747.62 387.325 1747.62 382.036V254.544C1747.62 237.545 1742.9 229.045 1733.45 229.045C1730.43 229.045 1718.53 233.578 1697.75 242.644C1676.98 251.711 1665.27 256.244 1662.62 256.244Z" fill="#CFCAC5"/>
</svg>
