<svg width="298" height="132" viewBox="0 0 298 132" fill="none" xmlns="http://www.w3.org/2000/svg">
<path d="M186.205 25.0698H180.544V39.5178H197.652L186.205 25.0698Z" fill="#3A2B2A"/>
<path d="M169.02 18.3208L167.783 19.5228L180.092 34.0198L181.328 32.8178L169.02 18.3208Z" fill="#231818"/>
<path d="M169.3 19.915C176.535 12.847 176.735 11.777 176.231 11.19C175.728 10.602 174.712 10.72 167.477 17.788C160.242 24.856 160.042 25.926 160.545 26.513C161.049 27.101 162.065 26.983 169.3 19.915Z" fill="#3A2B2A"/>
<path d="M78.7615 0C74.6725 0 71.4494 2.607 72.0084 5.462L78.9705 41.032H92.3594L85.0895 3.887C84.6495 1.642 81.9775 0 78.7615 0Z" fill="#5E504F"/>
<path d="M80.2683 27.428H89.6992L85.0913 3.88798C84.6513 1.64298 81.9793 0.000976562 78.7633 0.000976562C77.3913 0.000976562 76.1223 0.298974 75.0553 0.796974L80.2683 27.428Z" fill="#846D6D"/>
<path d="M133.346 2.69385C129.206 2.69385 125.786 5.31385 126.181 8.18385L131.095 43.9339H144.652L139.521 6.60184C139.209 4.34384 136.602 2.69385 133.346 2.69385Z" fill="#5E504F"/>
<path d="M129.459 3.53484L132.91 28.6448H142.551L139.521 6.60085C139.211 4.34385 136.603 2.69385 133.347 2.69385C131.922 2.69385 130.587 3.00984 129.459 3.53484Z" fill="#846D6D"/>
<path d="M236.149 41.2388V82.6848L252.543 75.6228L248.887 52.1458C247.909 45.8688 242.503 41.2388 236.149 41.2388Z" fill="#5E504F"/>
<path d="M234.488 43.8032V80.9852L249.195 74.6502L245.915 53.5882C245.037 47.9562 240.188 43.8032 234.488 43.8032Z" fill="#3A2B2A"/>
<path d="M234.11 46.4658V79.0138L246.984 73.4678L244.113 55.0308C243.344 50.1018 239.099 46.4658 234.11 46.4658Z" fill="#5E504F"/>
<path d="M255.793 63.4131L231.121 71.1321L223.347 81.6701L219.028 95.8361L255.565 93.4621L255.793 63.4131Z" fill="#281C1B"/>
<path d="M254.368 91.873H96.8959L99.6199 97.261H255.297L254.368 91.873Z" fill="#281C1B"/>
<path d="M182.64 36.2658V29.6338H30.9457C31.2707 48.5688 38.1297 68.3168 47.4337 80.4748H91.5206L99.8286 96.3538L217.991 97.9088L224.556 79.9428L237.512 67.3318L235.608 36.2658H182.64Z" fill="#3A2B2A"/>
<path d="M161.113 29.6338H146.706L141.851 70.8728H156.258L161.113 29.6338Z" fill="#473737"/>
<path d="M124.578 29.6338H110.171L105.316 70.8728H119.723L124.578 29.6338Z" fill="#473737"/>
<path d="M236.874 56.8628L231.234 36.2248L229.838 58.3068L184.568 67.3308V43.8368L195.077 36.2658L190.139 29.6338H177.571V91.5168L102.656 90.4188C98.3796 71.5028 85.8396 62.8828 78.1956 59.7738L68.7375 33.3388C68.7375 33.3388 39.4616 33.3388 31.0956 33.3388C32.1786 51.1078 38.7396 69.1088 47.4376 80.4748H91.5247L99.8326 96.3538L217.995 97.9088L224.56 79.9428L237.516 67.3318L236.874 56.8628Z" fill="#281D1D"/>
<path d="M87.0454 73.5511L63.7234 65.4312L40.2294 70.9592L59.0144 102.227L74.5984 95.0312L98.2734 94.6022L87.0454 73.5511Z" fill="#281C1B"/>
<path d="M186.357 24.3379H179.792V30.4369H191.205C191.861 30.4369 192.228 29.7739 191.823 29.3219L188.024 25.0829C187.6 24.6089 186.993 24.3379 186.357 24.3379Z" fill="#BF4141"/>
<path d="M236.428 35.23H233.168C232.078 35.23 231.226 36.17 231.334 37.255L234.406 68.318L241.359 66.144L238.261 36.879C238.162 35.941 237.371 35.23 236.428 35.23Z" fill="#FFBB4D"/>
<path d="M237.64 37.3559C237.55 36.5059 236.833 35.8599 235.978 35.8599H233.022C232.843 35.8599 232.675 35.8969 232.513 35.9479C232.507 36.2229 232.498 36.4939 232.498 36.7729C232.498 44.9049 234.9 51.4979 237.863 51.4979C238.287 51.4979 238.698 51.3489 239.094 51.0929L237.64 37.3559Z" fill="#FFDC78"/>
<path d="M221.965 38.7842H220.426V51.5692L221.965 51.2662V38.7842Z" fill="#231818"/>
<path d="M218.309 38.7842H216.585V52.3272L218.309 51.9872V38.7842Z" fill="#231818"/>
<path d="M214.207 38.7842H212.262V53.1802L214.207 52.7962V38.7842Z" fill="#231818"/>
<path d="M209.566 38.7842H207.354V54.1482L209.566 53.7122V38.7842Z" fill="#231818"/>
<path d="M204.277 38.7842H201.74V55.2552L204.277 54.7552V38.7842Z" fill="#231818"/>
<path d="M198.195 38.7842H195.256V56.5352L198.195 55.9552V38.7842Z" fill="#231818"/>
<path d="M126.288 29.6338V62.8948C126.288 67.2018 123.463 70.7058 119.99 70.7058H104.727C101.254 70.7058 98.4275 67.2018 98.4275 62.8948V29.6338H97.1085V62.8948C97.1085 68.1038 100.525 72.3408 104.725 72.3408H119.989C124.189 72.3408 127.605 68.1038 127.605 62.8948V29.6338H126.288Z" fill="#231818"/>
<path d="M163.073 29.6338V62.6528C163.073 66.9278 160.328 70.4068 156.953 70.4068H142.121C138.746 70.4068 136.001 66.9288 136.001 62.6528V29.6338H134.72V62.6528C134.72 67.8238 138.04 72.0298 142.122 72.0298H156.953C161.034 72.0298 164.355 67.8238 164.355 62.6528V29.6338H163.073Z" fill="#231818"/>
<path d="M31.0732 5.85181L29.9613 5.97281C28.5953 6.12181 27.7223 8.46982 28.2493 10.5798L28.8702 13.0678L28.2612 13.3688C26.6592 14.1618 26.3152 17.6938 27.6832 19.2938L26.9592 19.7888C25.5822 20.7288 25.2833 23.7648 26.4083 25.3908L26.4973 25.5198C25.8153 27.5448 26.6913 30.0478 28.0833 30.0478H83.2762L83.4453 27.5008L33.5803 1.49781C31.9903 0.669814 30.5152 3.22981 31.0732 5.85181Z" fill="#BF4141"/>
<path d="M33.5823 1.49908C33.1573 1.27808 32.7422 1.30407 32.3702 1.50207C38.4442 5.02107 44.8652 9.54807 44.3772 10.4101C43.9002 11.2521 36.9073 8.23908 30.9613 4.94308C30.9743 5.24208 31.0092 5.54707 31.0742 5.85307L30.2953 5.93807C35.2393 7.86707 42.4772 12.5831 41.9802 14.0381C41.4872 15.4811 33.4962 13.1721 28.5012 11.5861L28.8712 13.0691L28.2622 13.3701C28.2002 13.4001 28.1443 13.4421 28.0873 13.4801C31.7873 14.4011 40.3432 17.4591 40.2312 18.8961C40.1162 20.3721 31.2173 19.6491 27.3673 18.8261C27.4613 18.9931 27.5642 19.1531 27.6842 19.2941L26.9602 19.7891C26.8712 19.8501 26.7992 19.9411 26.7192 20.0191C31.0322 20.4481 38.5542 21.7581 38.6112 22.9771C38.6722 24.2791 30.7753 24.9971 26.0463 24.6991C26.1443 24.9481 26.2642 25.1821 26.4082 25.3911L26.4973 25.5201C26.4433 25.6801 26.4023 25.8441 26.3673 26.0091C27.5453 25.8531 28.9023 25.7631 30.3513 25.7631C34.8413 25.7631 38.4812 26.6191 38.4812 27.6741C38.4812 28.7301 34.8413 29.5851 30.3513 29.5851C29.1413 29.5851 27.9962 29.5211 26.9642 29.4101C27.2662 29.8061 27.6493 30.0491 28.0833 30.0491H83.2762L83.4453 27.5021L33.5823 1.49908Z" fill="#A52D2D"/>
<path d="M275.903 62.0148C241.752 51.3138 221.505 68.8718 217.378 96.7428L99.5361 94.4968C92.7481 65.0858 70.9811 53.4328 34.1801 66.7798C32.2771 67.4698 31.2371 69.5298 31.8211 71.4668C32.4561 73.5708 34.7331 74.6858 36.7961 73.9288C77.0671 59.1608 91.304 75.0988 98.194 99.2358V99.4368H98.2531C98.2581 99.4538 98.2631 99.4708 98.2681 99.4888H100.006C100.003 99.4708 100 99.4548 99.9971 99.4368L218.135 99.3328H219.364C223.915 73.3998 245 58.6338 273.981 68.0038C275.753 68.5768 277.638 67.5238 278.042 65.7048C278.397 64.1088 277.463 62.5038 275.903 62.0148Z" fill="#FFBB4D"/>
<path d="M53.6982 99.6782C53.6982 104.613 57.6993 108.614 62.6343 108.614C67.5693 108.614 71.5703 104.613 71.5703 99.6782C71.5703 94.7432 67.5693 90.7422 62.6343 90.7422C57.6993 90.7422 53.6982 94.7432 53.6982 99.6782Z" fill="#281C1B"/>
<path d="M72.463 94.0322C77.647 90.5202 81.686 87.4332 81.485 87.1372C81.284 86.8412 76.919 89.4472 71.736 92.9592C66.552 96.4712 62.513 99.5582 62.713 99.8542C62.915 100.15 67.28 97.5442 72.463 94.0322Z" fill="#916044"/>
<path d="M54.338 106.313C59.522 102.801 63.561 99.7139 63.36 99.4179C63.159 99.1219 58.7951 101.728 53.6111 105.24C48.4271 108.752 44.388 111.839 44.588 112.135C44.789 112.431 49.154 109.825 54.338 106.313Z" fill="#916044"/>
<path d="M68.6408 109.063C72.1528 114.247 75.2397 118.286 75.5357 118.085C75.8317 117.884 73.2248 113.52 69.7138 108.336C66.2018 103.152 63.1148 99.1133 62.8188 99.3143C62.5228 99.5153 65.1288 103.88 68.6408 109.063Z" fill="#916044"/>
<path d="M56.3595 90.9363C59.8715 96.1203 62.9584 100.159 63.2544 99.9593C63.5504 99.7583 60.9435 95.3933 57.4325 90.2103C53.9205 85.0263 50.8335 80.9873 50.5375 81.1883C50.2415 81.3873 52.8485 85.7523 56.3595 90.9363Z" fill="#916044"/>
<path d="M65.7424 89.0072C66.9244 82.8582 67.5985 77.8192 67.2465 77.7522C66.8955 77.6842 65.6514 82.6142 64.4694 88.7632C63.2874 94.9112 62.6134 99.9512 62.9644 100.018C63.3164 100.086 64.5594 95.1562 65.7424 89.0072Z" fill="#916044"/>
<path d="M61.6057 110.51C62.7877 104.362 63.4618 99.3221 63.1098 99.2551C62.7588 99.1881 61.5147 104.117 60.3327 110.266C59.1507 116.415 58.4767 121.454 58.8287 121.521C59.1807 121.588 60.4237 116.658 61.6057 110.51Z" fill="#916044"/>
<path d="M73.6662 102.34C79.8152 103.522 84.8542 104.196 84.9212 103.845C84.9892 103.494 80.0592 102.25 73.9102 101.068C67.7622 99.8861 62.7222 99.2121 62.6552 99.5641C62.5882 99.9141 67.5172 101.157 73.6662 102.34Z" fill="#916044"/>
<path d="M52.1662 98.2053C58.3152 99.3873 63.3542 100.061 63.4212 99.7103C63.4892 99.3593 58.5592 98.1153 52.4102 96.9333C46.2612 95.7513 41.2222 95.0773 41.1552 95.4293C41.0882 95.7803 46.0172 97.0233 52.1662 98.2053Z" fill="#916044"/>
<path d="M73.898 98.104C80.035 96.865 84.9531 95.575 84.8821 95.225C84.8111 94.874 79.778 95.595 73.641 96.834C67.504 98.073 62.586 99.363 62.657 99.713C62.728 100.064 67.76 99.343 73.898 98.104Z" fill="#916044"/>
<path d="M52.4332 102.438C58.5702 101.199 63.4882 99.909 63.4172 99.559C63.3462 99.208 58.3132 99.929 52.1762 101.168C46.0392 102.408 41.1212 103.697 41.1922 104.048C41.2632 104.399 46.2962 103.678 52.4332 102.438Z" fill="#916044"/>
<path d="M64.5712 110.496C65.8112 116.633 67.1003 121.551 67.4503 121.48C67.8013 121.409 67.0803 116.376 65.8413 110.239C64.6013 104.102 63.3122 99.1842 62.9622 99.2552C62.6102 99.3262 63.3312 104.359 64.5712 110.496Z" fill="#916044"/>
<path d="M60.2354 89.0333C61.4754 95.1703 62.7643 100.088 63.1143 100.017C63.4653 99.9463 62.7443 94.9133 61.5053 88.7763C60.2653 82.6393 58.9764 77.7213 58.6264 77.7923C58.2754 77.8633 58.9954 82.8963 60.2354 89.0333Z" fill="#916044"/>
<path d="M69.6322 90.8744C73.0952 85.6584 75.6612 81.2694 75.3632 81.0714C75.0652 80.8734 72.0162 84.9414 68.5532 90.1574C65.0902 95.3734 62.5243 99.7624 62.8223 99.9604C63.1193 100.158 66.1682 96.0904 69.6322 90.8744Z" fill="#916044"/>
<path d="M57.5228 109.115C60.9858 103.899 63.5518 99.5101 63.2538 99.3121C62.9558 99.1141 59.9067 103.182 56.4437 108.399C52.9807 113.615 50.4148 118.004 50.7128 118.202C51.0108 118.4 54.0598 114.331 57.5228 109.115Z" fill="#916044"/>
<path d="M71.7995 106.231C77.0155 109.694 81.4044 112.26 81.6024 111.962C81.8004 111.664 77.7325 108.615 72.5165 105.152C67.3005 101.689 62.9114 99.123 62.7134 99.421C62.5154 99.719 66.5835 102.768 71.7995 106.231Z" fill="#916044"/>
<path d="M53.5573 94.1202C58.7733 97.5832 63.1623 100.149 63.3603 99.8512C63.5583 99.5532 59.4902 96.5042 54.2742 93.0412C49.0582 89.5782 44.6692 87.0122 44.4712 87.3102C44.2732 87.6082 48.3413 90.6572 53.5573 94.1202Z" fill="#916044"/>
<path d="M87.1822 103.009C85.3422 116.565 72.8612 126.063 59.3052 124.223C45.7492 122.383 36.2512 109.902 38.0912 96.3463C39.9312 82.7903 52.4122 73.2923 65.9682 75.1323C79.5242 76.9733 89.0222 89.4533 87.1822 103.009ZM65.1203 81.3873C54.9213 80.0033 45.5422 87.0703 44.1712 97.1713C42.8002 107.273 49.9562 116.584 60.1552 117.968C70.3542 119.352 79.7333 112.285 81.1043 102.184C82.4743 92.0833 75.3183 82.7713 65.1203 81.3873Z" fill="#916044"/>
<path d="M87.1822 103.009C85.3422 116.565 72.8612 126.063 59.3052 124.223C45.7492 122.383 36.2512 109.902 38.0912 96.3463C39.9312 82.7903 52.4122 73.2923 65.9682 75.1323C79.5242 76.9733 89.0222 89.4533 87.1822 103.009ZM80.9862 96.5183C80.3312 96.6833 79.5912 96.8593 78.8172 97.0383C78.6822 96.6683 78.5462 96.2993 78.3882 95.9403C79.2382 95.7923 80.0512 95.6563 80.7702 95.5463C80.2922 93.5093 79.4852 91.5843 78.3762 89.8473C77.6212 90.4133 76.7492 91.0463 75.8002 91.7203C75.5402 91.4043 75.2572 91.1103 74.9772 90.8133C76.0082 90.1463 76.9632 89.5433 77.8072 89.0283C76.6282 87.3833 75.1942 85.9223 73.5312 84.7293C72.9642 85.6783 72.2812 86.7793 71.5272 87.9613C71.1812 87.7413 70.8362 87.5193 70.4752 87.3223C71.2812 86.1553 72.0392 85.0853 72.7002 84.1853C70.9772 83.0823 69.0612 82.2323 66.9802 81.7353C66.8172 82.8843 66.5982 84.2443 66.3422 85.7163C65.9452 85.6143 65.5472 85.5173 65.1402 85.4423C65.4452 83.9993 65.7422 82.6713 66.0142 81.5553C65.7162 81.5003 65.4243 81.4293 65.1203 81.3883C63.3243 81.1443 61.5582 81.1763 59.8522 81.4263C60.1282 82.5043 60.4302 83.7793 60.7422 85.1803C60.3312 85.2053 59.9222 85.2373 59.5182 85.2893C59.2712 83.9203 59.0622 82.6673 58.9022 81.5973C56.7752 82.0243 54.7603 82.8003 52.9433 83.8953C53.5143 84.6483 54.1672 85.5403 54.8662 86.5183C54.4972 86.6723 54.1422 86.8523 53.7862 87.0293C53.1752 86.0753 52.6182 85.1843 52.1552 84.4143C50.3882 85.6043 48.8202 87.0763 47.5532 88.8023C48.1392 89.1453 48.8102 89.5543 49.5142 89.9883C49.2372 90.2463 48.9662 90.5103 48.7062 90.7853C48.1002 90.3513 47.5372 89.9423 47.0412 89.5703C45.8522 91.3733 44.9622 93.3983 44.4662 95.6013C44.7522 95.6393 45.0562 95.6823 45.3712 95.7273C45.2302 96.0353 45.0992 96.3473 44.9762 96.6653C44.7432 96.6083 44.5142 96.5523 44.2982 96.4983C44.2592 96.7243 44.2022 96.9433 44.1712 97.1723C44.0362 98.1693 43.9872 99.1583 44.0152 100.132C43.8422 101.138 43.7332 102.166 43.7332 103.222C43.7332 113.216 51.8352 121.318 61.8292 121.318C70.1462 121.318 77.1342 115.7 79.2512 108.057C79.9632 106.662 80.5033 105.158 80.8443 103.567C80.5533 103.525 80.2282 103.474 79.9132 103.427C79.9142 103.358 79.9232 103.292 79.9232 103.223C79.9232 102.919 79.8922 102.623 79.8772 102.323C80.2722 102.414 80.6683 102.505 81.0263 102.592C81.0483 102.455 81.0832 102.324 81.1022 102.187C81.3662 100.249 81.3112 98.3453 80.9862 96.5183Z" fill="#683F2B"/>
<path d="M90.8938 103.513C88.7758 119.119 74.4069 130.054 58.8009 127.936C43.1949 125.818 32.2598 111.449 34.3788 95.8431C36.4968 80.2371 50.8658 69.3021 66.4718 71.4201C82.0778 73.5381 93.0118 87.9071 90.8938 103.513ZM65.4939 78.6211C53.7529 77.0271 42.9549 85.1631 41.3759 96.7931C39.7979 108.423 48.0359 119.142 59.7769 120.736C71.5179 122.33 82.3159 114.194 83.8949 102.564C85.4739 90.9341 77.2349 80.2141 65.4939 78.6211Z" fill="#C9B289"/>
<path d="M66.6162 100.218C66.3202 102.394 64.3001 103.917 62.1031 103.618C59.9061 103.32 58.3641 101.314 58.6601 99.1379C58.9551 96.9619 60.9762 95.4389 63.1732 95.7369C65.3692 96.0359 66.9112 98.042 66.6162 100.218Z" fill="#C9B289"/>
<path d="M34.3782 98.0882C36.4962 82.4822 50.8651 71.5472 66.4721 73.6652C80.4121 75.5572 90.6162 87.2252 91.1282 100.817C91.7262 86.2842 81.1751 73.4152 66.4721 71.4192C50.8661 69.3012 36.4972 80.2352 34.3782 95.8422C34.1522 97.5082 34.0831 99.1592 34.1441 100.784C34.1811 99.8912 34.2562 98.9922 34.3782 98.0882Z" fill="#E5D1B3"/>
<path d="M59.7763 122.981C71.5173 124.575 82.3153 116.439 83.8943 104.809C84.0783 103.452 84.1163 102.11 84.0433 100.791C84.0133 101.379 83.9743 101.969 83.8943 102.563C82.3153 114.193 71.5183 122.329 59.7763 120.735C49.4053 119.327 41.7793 110.797 41.2253 100.81C40.6643 111.738 48.6353 121.469 59.7763 122.981Z" fill="#E5D1B3"/>
<path d="M65.494 76.677C53.753 75.083 42.955 83.219 41.376 94.849C41.203 96.121 41.168 97.379 41.222 98.618C41.252 98.012 41.293 97.404 41.376 96.792C42.955 85.162 53.752 77.026 65.494 78.62C75.951 80.039 83.609 88.7009 84.049 98.7939C84.582 87.8889 76.617 78.187 65.494 76.677Z" fill="#B29360"/>
<path d="M90.8927 101.57C88.7747 117.176 74.4058 128.111 58.7998 125.993C44.7988 124.093 34.5657 112.332 34.1357 98.6641C33.6027 113.146 44.1388 125.946 58.7998 127.936C74.4058 130.054 88.7747 119.12 90.8927 103.513C91.1107 101.907 91.1828 100.316 91.1338 98.7481C91.0998 99.6831 91.0207 100.624 90.8927 101.57Z" fill="#B29360"/>
<path d="M254.962 109.138C249.142 109.138 244.424 104.42 244.424 98.6C244.424 92.78 249.142 88.062 254.962 88.062C260.782 88.062 265.5 92.78 265.5 98.6C265.5 104.42 260.782 109.138 254.962 109.138Z" fill="#281C1B"/>
<path d="M265.256 94.0322C270.44 90.5202 274.479 87.4332 274.278 87.1372C274.077 86.8412 269.712 89.4472 264.529 92.9592C259.345 96.4712 255.306 99.5582 255.506 99.8542C255.707 100.15 260.072 97.5442 265.256 94.0322Z" fill="#916044"/>
<path d="M247.127 106.313C252.311 102.801 256.35 99.7139 256.149 99.4179C255.948 99.1219 251.583 101.728 246.4 105.24C241.216 108.752 237.177 111.839 237.378 112.135C237.578 112.431 241.943 109.825 247.127 106.313Z" fill="#916044"/>
<path d="M261.43 109.063C264.942 114.247 268.029 118.286 268.325 118.085C268.621 117.884 266.014 113.52 262.503 108.336C258.991 103.152 255.904 99.1133 255.608 99.3143C255.311 99.5153 257.918 103.88 261.43 109.063Z" fill="#916044"/>
<path d="M249.148 90.9363C252.66 96.1203 255.747 100.159 256.043 99.9593C256.339 99.7583 253.732 95.3933 250.221 90.2103C246.709 85.0263 243.622 80.9873 243.326 81.1883C243.029 81.3873 245.636 85.7523 249.148 90.9363Z" fill="#916044"/>
<path d="M258.531 89.0071C259.713 82.8581 260.387 77.8191 260.036 77.7521C259.685 77.6851 258.442 82.6141 257.259 88.7631C256.077 94.9111 255.403 99.9511 255.755 100.018C256.105 100.086 257.349 95.1561 258.531 89.0071Z" fill="#916044"/>
<path d="M254.394 110.51C255.576 104.362 256.25 99.3221 255.899 99.2551C255.548 99.1881 254.304 104.117 253.122 110.266C251.94 116.414 251.266 121.454 251.617 121.521C251.969 121.588 253.212 116.658 254.394 110.51Z" fill="#916044"/>
<path d="M266.455 102.34C272.604 103.522 277.643 104.196 277.71 103.845C277.778 103.494 272.848 102.25 266.699 101.068C260.551 99.8861 255.511 99.2121 255.444 99.5641C255.377 99.9141 260.307 101.157 266.455 102.34Z" fill="#916044"/>
<path d="M244.955 98.2053C251.104 99.3873 256.143 100.061 256.21 99.7103C256.278 99.3593 251.348 98.1153 245.2 96.9333C239.051 95.7513 234.012 95.0773 233.945 95.4293C233.877 95.7803 238.806 97.0233 244.955 98.2053Z" fill="#916044"/>
<path d="M266.687 98.104C272.824 96.865 277.742 95.575 277.671 95.225C277.6 94.874 272.567 95.595 266.43 96.834C260.293 98.074 255.375 99.363 255.446 99.713C255.517 100.064 260.55 99.343 266.687 98.104Z" fill="#916044"/>
<path d="M245.222 102.438C251.359 101.199 256.277 99.909 256.206 99.559C256.135 99.208 251.103 99.929 244.965 101.168C238.828 102.408 233.91 103.697 233.981 104.048C234.052 104.399 239.085 103.678 245.222 102.438Z" fill="#916044"/>
<path d="M257.36 110.496C258.6 116.633 259.889 121.551 260.239 121.48C260.59 121.409 259.869 116.376 258.63 110.239C257.391 104.102 256.101 99.1842 255.751 99.2552C255.401 99.3262 256.12 104.359 257.36 110.496Z" fill="#916044"/>
<path d="M253.025 89.0333C254.265 95.1703 255.554 100.088 255.904 100.017C256.254 99.9463 255.534 94.9133 254.295 88.7763C253.055 82.6393 251.766 77.7213 251.416 77.7923C251.065 77.8633 251.786 82.8963 253.025 89.0333Z" fill="#916044"/>
<path d="M262.421 90.8744C265.884 85.6584 268.45 81.2694 268.152 81.0714C267.854 80.8734 264.805 84.9414 261.342 90.1574C257.879 95.3734 255.313 99.7624 255.611 99.9604C255.908 100.158 258.958 96.0904 262.421 90.8744Z" fill="#916044"/>
<path d="M250.312 109.115C253.775 103.899 256.341 99.5101 256.043 99.3121C255.745 99.1141 252.696 103.182 249.233 108.399C245.77 113.615 243.204 118.004 243.502 118.202C243.8 118.4 246.849 114.331 250.312 109.115Z" fill="#916044"/>
<path d="M264.589 106.231C269.805 109.694 274.194 112.26 274.392 111.962C274.59 111.664 270.522 108.615 265.306 105.152C260.09 101.689 255.7 99.123 255.502 99.421C255.304 99.719 259.373 102.768 264.589 106.231Z" fill="#916044"/>
<path d="M246.346 94.1202C251.562 97.5832 255.951 100.149 256.149 99.8512C256.347 99.5532 252.279 96.5042 247.063 93.0412C241.847 89.5782 237.458 87.0122 237.26 87.3102C237.062 87.6082 241.13 90.6572 246.346 94.1202Z" fill="#916044"/>
<path d="M279.971 103.009C278.131 116.565 265.65 126.063 252.094 124.223C238.538 122.383 229.04 109.902 230.88 96.3463C232.72 82.7903 245.201 73.2923 258.757 75.1323C272.313 76.9733 281.811 89.4533 279.971 103.009ZM257.908 81.3873C247.709 80.0033 238.33 87.0703 236.959 97.1713C235.588 107.273 242.744 116.584 252.943 117.968C263.142 119.352 272.521 112.285 273.892 102.184C275.263 92.0833 268.107 82.7713 257.908 81.3873Z" fill="#916044"/>
<path d="M279.971 103.009C278.131 116.565 265.65 126.063 252.094 124.223C238.538 122.383 229.04 109.902 230.88 96.3463C232.72 82.7903 245.201 73.2923 258.757 75.1323C272.313 76.9733 281.811 89.4533 279.971 103.009ZM273.774 96.5183C273.119 96.6833 272.379 96.8593 271.605 97.0383C271.47 96.6683 271.334 96.2993 271.176 95.9403C272.026 95.7923 272.839 95.6563 273.558 95.5463C273.08 93.5093 272.273 91.5843 271.164 89.8473C270.409 90.4133 269.537 91.0463 268.588 91.7203C268.328 91.4043 268.045 91.1103 267.765 90.8133C268.796 90.1463 269.751 89.5433 270.595 89.0283C269.416 87.3833 267.982 85.9223 266.32 84.7293C265.753 85.6783 265.07 86.7793 264.316 87.9613C263.97 87.7413 263.625 87.5193 263.264 87.3223C264.07 86.1553 264.828 85.0853 265.489 84.1853C263.766 83.0823 261.85 82.2323 259.769 81.7353C259.606 82.8843 259.387 84.2443 259.131 85.7163C258.734 85.6143 258.336 85.5173 257.929 85.4423C258.234 83.9993 258.531 82.6713 258.803 81.5553C258.505 81.5003 258.213 81.4293 257.909 81.3883C256.113 81.1443 254.347 81.1763 252.641 81.4263C252.916 82.5043 253.219 83.7793 253.531 85.1803C253.119 85.2053 252.711 85.2373 252.307 85.2893C252.06 83.9203 251.851 82.6673 251.691 81.5973C249.563 82.0243 247.549 82.8003 245.732 83.8953C246.303 84.6483 246.956 85.5403 247.655 86.5183C247.286 86.6723 246.931 86.8523 246.575 87.0293C245.964 86.0753 245.407 85.1843 244.944 84.4143C243.177 85.6043 241.609 87.0763 240.342 88.8023C240.928 89.1453 241.599 89.5543 242.303 89.9883C242.026 90.2463 241.755 90.5103 241.495 90.7853C240.889 90.3513 240.326 89.9423 239.83 89.5703C238.641 91.3733 237.751 93.3983 237.255 95.6013C237.541 95.6393 237.845 95.6823 238.16 95.7273C238.019 96.0353 237.888 96.3473 237.765 96.6653C237.532 96.6083 237.302 96.5523 237.087 96.4983C237.048 96.7243 236.991 96.9433 236.96 97.1723C236.825 98.1693 236.776 99.1583 236.804 100.132C236.631 101.138 236.521 102.166 236.521 103.222C236.521 113.216 244.623 121.318 254.617 121.318C262.934 121.318 269.922 115.7 272.04 108.057C272.752 106.662 273.292 105.158 273.633 103.567C273.343 103.525 273.017 103.474 272.703 103.427C272.704 103.358 272.713 103.292 272.713 103.223C272.713 102.919 272.682 102.623 272.668 102.323C273.063 102.414 273.459 102.505 273.817 102.592C273.839 102.455 273.874 102.324 273.893 102.187C274.154 100.249 274.099 98.3453 273.774 96.5183Z" fill="#683F2B"/>
<path d="M283.683 103.513C281.565 119.119 267.196 130.054 251.59 127.936C235.984 125.818 225.049 111.449 227.168 95.8431C229.286 80.2371 243.655 69.3021 259.261 71.4201C274.867 73.5381 285.802 87.9071 283.683 103.513ZM258.284 78.6211C246.543 77.0271 235.745 85.1631 234.166 96.7931C232.588 108.423 240.826 119.142 252.567 120.736C264.308 122.33 275.106 114.194 276.685 102.564C278.263 90.9341 270.025 80.2141 258.284 78.6211Z" fill="#C9B289"/>
<path d="M259.405 100.218C259.109 102.394 257.089 103.917 254.892 103.618C252.695 103.32 251.153 101.314 251.449 99.1379C251.745 96.9619 253.765 95.4389 255.962 95.7369C258.159 96.0359 259.7 98.042 259.405 100.218Z" fill="#C9B289"/>
<path d="M227.168 98.0882C229.286 82.4822 243.655 71.5472 259.261 73.6652C273.201 75.5572 283.405 87.2252 283.917 100.817C284.515 86.2842 273.964 73.4152 259.261 71.4192C243.655 69.3012 229.286 80.2352 227.168 95.8422C226.942 97.5082 226.873 99.1592 226.934 100.784C226.971 99.8912 227.046 98.9922 227.168 98.0882Z" fill="#E5D1B3"/>
<path d="M252.569 122.981C264.31 124.575 275.108 116.439 276.687 104.809C276.871 103.452 276.909 102.11 276.836 100.791C276.806 101.379 276.767 101.969 276.687 102.563C275.109 114.193 264.311 122.329 252.569 120.735C242.198 119.327 234.572 110.797 234.018 100.81C233.457 111.738 241.428 121.469 252.569 122.981Z" fill="#E5D1B3"/>
<path d="M258.283 76.677C246.542 75.083 235.744 83.219 234.165 94.849C233.992 96.121 233.957 97.379 234.011 98.618C234.041 98.012 234.082 97.404 234.165 96.792C235.743 85.162 246.541 77.026 258.283 78.62C268.74 80.039 276.398 88.7009 276.838 98.7939C277.37 87.8889 269.406 78.187 258.283 76.677Z" fill="#B29360"/>
<path d="M283.682 101.57C281.564 117.176 267.195 128.111 251.589 125.993C237.588 124.093 227.355 112.332 226.926 98.6641C226.394 113.146 236.929 125.946 251.589 127.936C267.195 130.054 281.564 119.12 283.682 103.513C283.9 101.907 283.972 100.316 283.923 98.7481C283.889 99.6831 283.811 100.624 283.682 101.57Z" fill="#B29360"/>
<path d="M179.795 22.5889L179.686 40.3989H180.701L181.976 23.4559C182.011 22.9809 181.025 22.5889 179.795 22.5889Z" fill="#FFBB4D"/>
<path d="M297.027 127.754H0.00134277C0.00134277 127.754 50.0774 131.382 161.938 131.382C273.799 131.382 297.027 127.754 297.027 127.754Z" fill="#4F4141"/>
<path d="M178.953 89.7888L101.905 87.7158V90.1348L178.953 92.2078V89.7888Z" fill="#473737"/>
<path d="M206.291 62.018C211.475 58.506 215.514 55.419 215.313 55.123C215.112 54.827 210.747 57.433 205.564 60.945C200.38 64.457 196.341 67.544 196.541 67.84C196.742 68.136 201.107 65.529 206.291 62.018Z" fill="#916044"/>
<path d="M188.162 74.2978C193.346 70.7858 197.385 67.6988 197.184 67.4028C196.983 67.1068 192.618 69.7128 187.435 73.2248C182.251 76.7368 178.212 79.8238 178.412 80.1198C178.614 80.4168 182.978 77.8098 188.162 74.2978Z" fill="#916044"/>
<path d="M202.465 77.0491C205.977 82.2331 209.064 86.2721 209.36 86.0711C209.656 85.8701 207.049 81.5051 203.538 76.3221C200.026 71.1381 196.939 67.0991 196.643 67.2991C196.347 67.4991 198.953 71.8651 202.465 77.0491Z" fill="#916044"/>
<path d="M190.184 58.9212C193.696 64.1052 196.783 68.1442 197.079 67.9432C197.375 67.7422 194.768 63.3772 191.257 58.1942C187.745 53.0102 184.658 48.9712 184.362 49.1722C184.065 49.3722 186.672 53.7372 190.184 58.9212Z" fill="#916044"/>
<path d="M199.567 56.993C200.749 50.844 201.423 45.805 201.071 45.738C200.719 45.671 199.477 50.6 198.294 56.749C197.112 62.897 196.438 67.937 196.79 68.004C197.141 68.071 198.385 63.141 199.567 56.993Z" fill="#916044"/>
<path d="M195.43 78.4949C196.612 72.3469 197.286 67.3069 196.934 67.2399C196.583 67.1729 195.34 72.1019 194.157 78.2509C192.974 84.3999 192.301 89.4389 192.652 89.5059C193.004 89.5729 194.247 84.6429 195.43 78.4949Z" fill="#916044"/>
<path d="M207.49 70.3249C213.639 71.5069 218.678 72.1809 218.745 71.8299C218.813 71.4789 213.883 70.2349 207.735 69.0529C201.587 67.8709 196.547 67.1969 196.48 67.5489C196.412 67.8999 201.342 69.1429 207.49 70.3249Z" fill="#916044"/>
<path d="M185.986 66.1912C192.135 67.3732 197.174 68.0472 197.241 67.6962C197.309 67.3452 192.38 66.1012 186.231 64.9192C180.082 63.7372 175.043 63.0632 174.976 63.4142C174.909 63.7652 179.837 65.0082 185.986 66.1912Z" fill="#916044"/>
<path d="M207.722 66.0889C213.859 64.8499 218.777 63.5599 218.706 63.2099C218.635 62.8589 213.602 63.5799 207.465 64.8189C201.328 66.0589 196.41 67.3479 196.481 67.6979C196.552 68.0489 201.585 67.3289 207.722 66.0889Z" fill="#916044"/>
<path d="M186.257 70.4238C192.394 69.1848 197.312 67.8948 197.241 67.5448C197.17 67.1938 192.137 67.9148 186 69.1538C179.863 70.3938 174.945 71.6828 175.016 72.0338C175.088 72.3838 180.12 71.6628 186.257 70.4238Z" fill="#916044"/>
<path d="M198.395 78.481C199.635 84.618 200.924 89.536 201.274 89.465C201.625 89.394 200.904 84.361 199.665 78.224C198.426 72.087 197.136 67.169 196.786 67.24C196.436 67.311 197.155 72.344 198.395 78.481Z" fill="#916044"/>
<path d="M194.06 57.0181C195.3 63.1551 196.589 68.0731 196.939 68.0021C197.29 67.9311 196.569 62.8981 195.33 56.7611C194.09 50.6241 192.801 45.7061 192.451 45.7771C192.1 45.8481 192.821 50.8811 194.06 57.0181Z" fill="#916044"/>
<path d="M203.456 58.8588C206.919 53.6428 209.485 49.2538 209.187 49.0558C208.889 48.8578 205.84 52.9258 202.377 58.1418C198.914 63.3578 196.348 67.7468 196.646 67.9448C196.944 68.1428 199.993 64.0748 203.456 58.8588Z" fill="#916044"/>
<path d="M191.347 77.1009C194.81 71.8849 197.376 67.4959 197.078 67.2979C196.78 67.0999 193.731 71.1679 190.268 76.3849C186.805 81.6009 184.239 85.9899 184.537 86.1879C184.834 86.3849 187.883 82.3169 191.347 77.1009Z" fill="#916044"/>
<path d="M205.624 74.2168C210.84 77.6798 215.229 80.2458 215.427 79.9478C215.625 79.6498 211.557 76.6008 206.341 73.1378C201.125 69.6748 196.736 67.1088 196.538 67.4068C196.34 67.7048 200.408 70.7538 205.624 74.2168Z" fill="#916044"/>
<path d="M187.381 62.106C192.597 65.569 196.986 68.135 197.184 67.837C197.382 67.539 193.314 64.49 188.098 61.027C182.882 57.564 178.493 54.998 178.295 55.296C178.097 55.593 182.165 58.642 187.381 62.106Z" fill="#916044"/>
<path d="M221.006 70.9951C219.166 84.5511 206.685 94.0491 193.129 92.2091C179.573 90.3691 170.075 77.8881 171.915 64.3321C173.755 50.7761 186.236 41.2781 199.792 43.1181C213.348 44.9581 222.846 57.4391 221.006 70.9951ZM198.943 49.3721C188.744 47.9881 179.365 55.0552 177.994 65.1562C176.623 75.2582 183.779 84.5691 193.978 85.9531C204.177 87.3371 213.556 80.2701 214.927 70.1691C216.298 60.0681 209.142 50.7571 198.943 49.3721Z" fill="#916044"/>
<path d="M221.006 70.9951C219.166 84.5511 206.685 94.0491 193.129 92.2091C179.573 90.3691 170.075 77.8881 171.915 64.3321C173.755 50.7761 186.236 41.2781 199.792 43.1181C213.348 44.9581 222.846 57.4391 221.006 70.9951ZM214.81 64.5041C214.155 64.6691 213.415 64.8451 212.641 65.0241C212.506 64.6541 212.37 64.2851 212.212 63.9261C213.062 63.7781 213.875 63.6421 214.594 63.5321C214.116 61.4951 213.309 59.5701 212.2 57.8331C211.445 58.3991 210.573 59.0321 209.624 59.7061C209.364 59.3911 209.081 59.0961 208.801 58.7991C209.832 58.1321 210.787 57.5291 211.631 57.0141C210.452 55.3691 209.018 53.9081 207.355 52.7151C206.788 53.6641 206.105 54.7651 205.351 55.9471C205.005 55.7271 204.66 55.5051 204.299 55.3081C205.105 54.1411 205.863 53.0712 206.524 52.1712C204.801 51.0682 202.885 50.2181 200.804 49.7211C200.641 50.8701 200.422 52.2301 200.166 53.7021C199.769 53.6001 199.371 53.5031 198.964 53.4281C199.269 51.9841 199.566 50.6571 199.838 49.5411C199.54 49.4861 199.248 49.4151 198.945 49.3741C197.149 49.1301 195.383 49.1621 193.677 49.4121C193.953 50.4901 194.255 51.7651 194.567 53.1661C194.155 53.1911 193.747 53.2231 193.343 53.2751C193.096 51.9061 192.887 50.6531 192.727 49.5831C190.599 50.0101 188.585 50.7861 186.768 51.8811C187.339 52.6341 187.992 53.5261 188.691 54.5041C188.322 54.6581 187.967 54.8381 187.611 55.0151C187 54.0611 186.443 53.1701 185.98 52.4001C184.213 53.5901 182.645 55.0621 181.378 56.7881C181.964 57.1311 182.635 57.5401 183.339 57.9741C183.062 58.2321 182.791 58.4961 182.531 58.7711C181.925 58.3371 181.362 57.9281 180.866 57.5561C179.676 59.3591 178.787 61.3852 178.291 63.5872C178.577 63.6252 178.881 63.6681 179.196 63.7131C179.055 64.0211 178.924 64.3331 178.801 64.6511C178.568 64.5941 178.339 64.5381 178.123 64.4841C178.084 64.7101 178.027 64.9291 177.996 65.1581C177.861 66.1551 177.812 67.1441 177.84 68.1181C177.667 69.1241 177.557 70.1521 177.557 71.2081C177.557 81.2021 185.659 89.3041 195.653 89.3041C203.97 89.3041 210.958 83.6861 213.076 76.0431C213.788 74.6481 214.328 73.1441 214.669 71.5531C214.378 71.5111 214.053 71.4601 213.739 71.4131C213.74 71.3441 213.749 71.2781 213.749 71.2091C213.749 70.9051 213.718 70.6092 213.704 70.3092C214.099 70.4002 214.495 70.4911 214.853 70.5781C214.875 70.4411 214.91 70.3101 214.929 70.1731C215.19 68.2351 215.134 66.3311 214.81 64.5041Z" fill="#683F2B"/>
<path d="M224.718 71.499C222.6 87.105 208.231 98.04 192.625 95.922C177.019 93.804 166.084 79.435 168.203 63.829C170.321 48.223 184.69 37.288 200.296 39.406C215.902 41.524 226.837 55.892 224.718 71.499ZM199.319 46.606C187.578 45.012 176.78 53.148 175.201 64.778C173.622 76.408 181.861 87.127 193.602 88.721C205.343 90.315 216.141 82.179 217.719 70.549C219.298 58.919 211.06 48.199 199.319 46.606Z" fill="#C9B289"/>
<path d="M200.44 68.2028C200.145 70.3788 198.124 71.9018 195.927 71.6028C193.73 71.3048 192.188 69.2988 192.484 67.1228C192.779 64.9468 194.8 63.4238 196.997 63.7218C199.194 64.0208 200.735 66.0268 200.44 68.2028Z" fill="#C9B289"/>
<path d="M168.203 66.074C170.321 50.468 184.69 39.533 200.296 41.651C214.236 43.543 224.44 55.211 224.952 68.803C225.55 54.27 214.999 41.401 200.296 39.405C184.69 37.287 170.321 48.221 168.203 63.828C167.977 65.494 167.908 67.145 167.969 68.77C168.006 67.876 168.08 66.977 168.203 66.074Z" fill="#E5D1B3"/>
<path d="M193.605 90.9669C205.346 92.5609 216.144 84.4249 217.722 72.7949C217.906 71.4379 217.944 70.0959 217.871 68.7769C217.841 69.3649 217.802 69.9549 217.722 70.5489C216.144 82.1789 205.346 90.3149 193.605 88.7209C183.234 87.3129 175.608 78.7829 175.054 68.7959C174.492 79.7229 182.463 89.4539 193.605 90.9669Z" fill="#E5D1B3"/>
<path d="M199.318 44.6618C187.577 43.0678 176.779 51.2038 175.2 62.8338C175.027 64.1058 174.992 65.3638 175.046 66.6028C175.076 65.9968 175.117 65.3888 175.2 64.7768C176.778 53.1468 187.576 45.0108 199.318 46.6048C209.775 48.0238 217.433 56.6858 217.873 66.7788C218.406 55.8738 210.441 46.1718 199.318 44.6618Z" fill="#B29360"/>
<path d="M224.717 69.5549C222.599 85.1609 208.23 96.0959 192.624 93.9779C178.623 92.0779 168.39 80.3169 167.96 66.6489C167.428 81.1309 177.963 93.9309 192.624 95.9209C208.23 98.0389 222.599 87.1049 224.717 71.4979C224.935 69.8919 225.007 68.3009 224.958 66.7329C224.924 67.6689 224.846 68.6089 224.717 69.5549Z" fill="#B29360"/>
<path d="M98.7947 96.2238L218.319 98.4698C222.482 71.2318 243.618 53.8588 277.43 63.0728C277.049 62.5908 276.531 62.2108 275.905 62.0148C241.754 51.3138 221.507 68.8718 217.38 96.7428L99.5377 94.4968C92.7497 65.0858 70.9828 53.4328 34.1818 66.7798C33.6438 66.9748 33.1848 67.2878 32.8018 67.6678C69.2658 55.7028 91.9437 67.4678 98.7947 96.2238Z" fill="#FFDC78"/>
<path d="M79.4884 28.8081C79.4884 30.7401 81.0545 32.3061 82.9865 32.3061C84.9185 32.3061 86.4844 30.7401 86.4844 28.8081C86.4844 26.8761 84.9185 25.3101 82.9865 25.3101C81.0545 25.3101 79.4884 26.8761 79.4884 28.8081Z" fill="#FFBB4D"/>
<path d="M81.0437 28.8078C81.0437 29.8808 81.9137 30.7508 82.9867 30.7508C84.0597 30.7508 84.9297 29.8808 84.9297 28.8078C84.9297 27.7348 84.0597 26.8638 82.9867 26.8638C81.9147 26.8638 81.0437 27.7338 81.0437 28.8078Z" fill="#281D1D"/>
<path d="M181.571 30.8813L85.3203 30.8813V28.8174L181.571 28.8174V30.8813Z" fill="#FFBB4D"/>
<path d="M246.238 38.0532C242.653 38.0872 239.76 40.1982 239.76 42.8002C239.76 45.4022 242.653 47.5142 246.238 47.5472V38.0532Z" fill="#C9B289"/>
<path d="M240.436 40.7109C240.007 41.3419 239.76 42.0499 239.76 42.8009C239.76 45.4039 242.653 47.5149 246.238 47.5479V43.4089C243.554 42.8849 241.452 41.9119 240.436 40.7109Z" fill="#B29360"/>
<path d="M247.189 48.4155H245.375V37.3595H247.189V48.4155Z" fill="#BF4141"/>
<path d="M49.5156 28.3331C49.5156 28.6911 47.6686 28.9421 45.3916 28.8941C43.1136 28.8461 41.2666 28.5181 41.2666 28.1601C41.2666 27.8021 43.1136 27.5511 45.3916 27.5991C47.6696 27.6461 49.5156 27.9751 49.5156 28.3331Z" fill="#BF4141"/>
<path d="M63.9049 23.3402C63.8129 23.7892 59.1489 22.4072 53.4879 20.2532C47.8269 18.0992 43.3119 15.9892 43.4049 15.5402C43.4969 15.0912 48.161 16.4732 53.822 18.6272C59.482 20.7812 63.9969 22.8912 63.9049 23.3402Z" fill="#BF4141"/>
<path d="M57.1772 23.6458C56.5772 23.7488 54.5813 23.5328 51.8643 23.0098C47.4263 22.1558 41.3592 20.5438 41.7922 20.0008C42.3012 19.3618 50.1003 20.9578 54.5333 22.2928C57.0203 23.0408 57.8132 23.5368 57.1772 23.6458Z" fill="#BF4141"/>
<path d="M55.0273 25.4888C55.0103 25.8458 51.8223 25.8428 47.9083 25.4818C43.9943 25.1208 40.8353 24.5388 40.8523 24.1818C40.8693 23.8248 44.0564 23.8278 47.9714 24.1888C51.8854 24.5498 55.0443 25.1318 55.0273 25.4888Z" fill="#BF4141"/>
<path d="M73.6619 25.2239C73.5259 25.6339 67.1379 22.9119 59.3949 19.1439C51.6519 15.3759 45.485 11.9889 45.621 11.5799C45.757 11.1699 52.1449 13.8919 59.8879 17.6599C67.6319 21.4269 73.7979 24.8139 73.6619 25.2239Z" fill="#BF4141"/>
</svg>
