<svg width="691" height="60" viewBox="0 0 691 60" fill="none" xmlns="http://www.w3.org/2000/svg">
<path d="M15.232 47V9.944H0.896V0.919998H39.68V9.944H25.408V47H15.232ZM59.2505 47.768C48.4985 47.768 42.3545 40.28 42.3545 30.36C42.3545 20.44 48.4985 12.952 59.2505 12.952C70.0025 12.952 76.1465 20.056 76.1465 31.32V33.24H51.5065C52.2745 37.848 54.9625 40.664 59.2505 40.664C62.9625 40.664 65.2665 39.256 66.5465 36.76H75.5705C73.4585 43.352 67.6345 47.768 59.2505 47.768ZM51.6345 26.968H66.9305C66.0345 22.68 63.3465 20.056 59.2505 20.056C55.1545 20.056 52.4665 22.68 51.6345 26.968ZM81.2 0.919998H90.544V37.08C90.544 39.064 91.312 40.024 93.616 40.024H97.968V47H91.12C85.616 47 81.2 45.528 81.2 38.04V0.919998ZM102.7 0.919998H112.044V37.08C112.044 39.064 112.812 40.024 115.116 40.024H119.468V47H112.62C107.116 47 102.7 45.528 102.7 38.04V0.919998ZM148.294 33.112C148.294 36.76 149.766 39.704 154.118 39.704C157.318 39.704 160.966 37.464 160.966 31.832H161.03V13.72H170.374V47H161.286V42.392C158.982 45.464 155.526 47.768 150.79 47.768C143.494 47.768 138.95 43.032 138.95 34.2V13.72H148.294V33.112ZM190.395 47.768C181.115 47.768 175.163 44.568 174.651 36.056H183.675C184.123 40.152 186.619 41.432 190.779 41.432C194.043 41.432 196.475 40.216 196.475 37.976C196.475 35.864 195.579 34.968 188.923 33.816C178.427 32.024 175.291 28.696 175.291 23.256C175.291 16.728 180.923 12.952 189.755 12.952C199.931 12.952 204.667 17.624 204.923 24.408H196.283C196.155 20.248 193.019 19.288 189.755 19.288C186.619 19.288 184.443 20.568 184.443 22.68C184.443 24.856 185.915 25.752 192.378 26.776C202.747 28.376 205.755 31.768 205.755 37.336C205.755 44.12 199.419 47.768 190.395 47.768ZM255.419 47L249.275 25.24L243.131 47H233.275L221.819 13.72H231.931L238.779 36.184L244.859 13.72H253.691L259.771 36.184L266.619 13.72H276.731L265.275 47H255.419ZM280.2 47V0.919998H289.544V17.944C291.848 15.064 295.24 12.952 299.784 12.952C307.08 12.952 311.624 17.688 311.624 26.52V47H302.28V27.608C302.28 23.96 300.808 21.016 296.456 21.016C293.256 21.016 289.608 23.256 289.608 28.888H289.544V47H280.2ZM339.005 47V43.416C336.189 46.68 332.733 47.768 328.509 47.768C321.341 47.768 316.349 44.184 316.349 37.592C316.349 31.64 320.317 28.888 329.469 27.288L338.749 25.688V24.152C338.749 21.656 337.469 19.928 333.309 19.928C329.789 19.928 327.357 21.528 327.293 24.472H317.949C318.077 16.664 324.733 12.952 333.245 12.952C343.101 12.952 347.901 16.856 347.901 23.064V47H339.005ZM325.885 37.272C325.885 39.64 327.613 41.176 331.005 41.176C335.037 41.176 338.749 39.192 338.749 34.264V31.576L331.325 33.048C327.741 33.752 325.885 34.584 325.885 37.272ZM356.905 3.48H366.312V13.72H374.505V20.696H366.312V37.08C366.312 39.064 367.017 40.024 369.385 40.024H374.505V47H366.825C361.321 47 356.905 45.528 356.905 38.04V20.696H351.209V13.72H356.905V3.48ZM394.013 47V0.919998H403.357V17.944C405.661 15.064 409.053 12.952 413.597 12.952C420.893 12.952 425.437 17.688 425.437 26.52V47H416.093V27.608C416.093 23.96 414.621 21.016 410.269 21.016C407.069 21.016 403.421 23.256 403.421 28.888H403.357V47H394.013ZM452.817 47V43.416C450.001 46.68 446.545 47.768 442.321 47.768C435.153 47.768 430.161 44.184 430.161 37.592C430.161 31.64 434.129 28.888 443.281 27.288L452.561 25.688V24.152C452.561 21.656 451.281 19.928 447.121 19.928C443.601 19.928 441.169 21.528 441.105 24.472H431.761C431.889 16.664 438.545 12.952 447.057 12.952C456.913 12.952 461.713 16.856 461.713 23.064V47H452.817ZM439.697 37.272C439.697 39.64 441.425 41.176 444.817 41.176C448.849 41.176 452.561 39.192 452.561 34.264V31.576L445.137 33.048C441.553 33.752 439.697 34.584 439.697 37.272ZM467.325 13.72H476.413V17.944C478.589 14.808 481.917 12.952 486.589 12.952C496.125 12.952 501.245 20.44 501.245 30.36C501.245 40.28 496.125 47.768 486.589 47.768C482.109 47.768 478.845 46.04 476.669 43.096V59.8H467.325V13.72ZM476.541 30.36C476.541 36.248 478.845 40.152 484.157 40.152C489.405 40.152 491.709 36.248 491.709 30.36C491.709 24.472 489.405 20.568 484.157 20.568C478.845 20.568 476.541 24.472 476.541 30.36ZM506.263 13.72H515.351V17.944C517.527 14.808 520.855 12.952 525.527 12.952C535.062 12.952 540.183 20.44 540.183 30.36C540.183 40.28 535.062 47.768 525.527 47.768C521.047 47.768 517.783 46.04 515.607 43.096V59.8H506.263V13.72ZM515.479 30.36C515.479 36.248 517.783 40.152 523.095 40.152C528.343 40.152 530.647 36.248 530.647 30.36C530.647 24.472 528.343 20.568 523.095 20.568C517.783 20.568 515.479 24.472 515.479 30.36ZM560.688 47.768C549.936 47.768 543.792 40.28 543.792 30.36C543.792 20.44 549.936 12.952 560.688 12.952C571.44 12.952 577.584 20.056 577.584 31.32V33.24H552.944C553.712 37.848 556.4 40.664 560.688 40.664C564.4 40.664 566.704 39.256 567.984 36.76H577.008C574.896 43.352 569.072 47.768 560.688 47.768ZM553.072 26.968H568.368C567.472 22.68 564.784 20.056 560.688 20.056C556.592 20.056 553.904 22.68 553.072 26.968ZM604.718 27.608C604.718 23.96 603.246 21.016 598.894 21.016C595.694 21.016 592.046 23.256 592.046 28.888H591.982V47H582.638V13.72H591.726V18.328C594.03 15.256 597.486 12.952 602.222 12.952C609.518 12.952 614.062 17.688 614.062 26.52V47H604.718V27.608ZM635.938 47.768C625.186 47.768 619.042 40.28 619.042 30.36C619.042 20.44 625.186 12.952 635.938 12.952C646.69 12.952 652.834 20.056 652.834 31.32V33.24H628.194C628.962 37.848 631.65 40.664 635.938 40.664C639.65 40.664 641.954 39.256 643.234 36.76H652.258C650.146 43.352 644.322 47.768 635.938 47.768ZM628.322 26.968H643.618C642.722 22.68 640.034 20.056 635.938 20.056C631.842 20.056 629.154 22.68 628.322 26.968ZM690.4 47H681.312V42.776C679.136 45.912 675.808 47.768 671.135 47.768C661.6 47.768 656.48 40.28 656.48 30.36C656.48 20.44 661.6 12.952 671.135 12.952C675.616 12.952 678.88 14.68 681.056 17.624V0.919998H690.4V47ZM666.016 30.36C666.016 36.248 668.32 40.152 673.568 40.152C678.88 40.152 681.184 36.248 681.184 30.36C681.184 24.472 678.88 20.568 673.568 20.568C668.32 20.568 666.016 24.472 666.016 30.36Z" fill="black"/>
</svg>
