<svg width="660" height="48" viewBox="0 0 660 48" fill="none" xmlns="http://www.w3.org/2000/svg">
<path d="M0.712 47V0.919998H22.024C33.48 0.919998 38.536 6.68 38.536 14.616C38.536 19.352 35.912 23.256 31.496 25.88C35.4 27.736 37 30.744 37.576 34.712L39.432 47H29.128L27.592 36.376C26.888 31.704 24.776 29.528 20.296 29.528H10.824V47H0.712ZM10.824 21.72H20.36C25.608 21.72 28.168 19.672 28.168 15.384C28.168 11.16 25.608 9.112 20.36 9.112H10.824V21.72ZM59.5005 47.768C48.7485 47.768 42.6045 40.28 42.6045 30.36C42.6045 20.44 48.7485 12.952 59.5005 12.952C70.2525 12.952 76.3965 20.056 76.3965 31.32V33.24H51.7565C52.5245 37.848 55.2125 40.664 59.5005 40.664C63.2125 40.664 65.5165 39.256 66.7965 36.76H75.8205C73.7085 43.352 67.8845 47.768 59.5005 47.768ZM51.8845 26.968H67.1805C66.2845 22.68 63.5965 20.056 59.5005 20.056C55.4045 20.056 52.7165 22.68 51.8845 26.968ZM102.442 47V43.416C99.626 46.68 96.17 47.768 91.946 47.768C84.778 47.768 79.786 44.184 79.786 37.592C79.786 31.64 83.754 28.888 92.906 27.288L102.186 25.688V24.152C102.186 21.656 100.906 19.928 96.746 19.928C93.226 19.928 90.794 21.528 90.73 24.472H81.386C81.514 16.664 88.17 12.952 96.682 12.952C106.538 12.952 111.338 16.856 111.338 23.064V47H102.442ZM89.322 37.272C89.322 39.64 91.05 41.176 94.442 41.176C98.474 41.176 102.186 39.192 102.186 34.264V31.576L94.762 33.048C91.178 33.752 89.322 34.584 89.322 37.272ZM149.462 47H140.374V42.776C138.198 45.912 134.87 47.768 130.198 47.768C120.662 47.768 115.542 40.28 115.542 30.36C115.542 20.44 120.662 12.952 130.198 12.952C134.678 12.952 137.942 14.68 140.118 17.624V0.919998H149.462V47ZM125.078 30.36C125.078 36.248 127.382 40.152 132.63 40.152C137.942 40.152 140.246 36.248 140.246 30.36C140.246 24.472 137.942 20.568 132.63 20.568C127.382 20.568 125.078 24.472 125.078 30.36ZM174.03 3.48H183.438V13.72H191.63V20.696H183.438V37.08C183.438 39.064 184.142 40.024 186.51 40.024H191.63V47H183.95C178.446 47 174.03 45.528 174.03 38.04V20.696H168.334V13.72H174.03V3.48ZM196.388 47V0.919998H205.732V17.944C208.036 15.064 211.428 12.952 215.972 12.952C223.268 12.952 227.812 17.688 227.812 26.52V47H218.468V27.608C218.468 23.96 216.996 21.016 212.644 21.016C209.444 21.016 205.796 23.256 205.796 28.888H205.732V47H196.388ZM249.688 47.768C238.936 47.768 232.792 40.28 232.792 30.36C232.792 20.44 238.936 12.952 249.688 12.952C260.44 12.952 266.584 20.056 266.584 31.32V33.24H241.944C242.712 37.848 245.4 40.664 249.688 40.664C253.4 40.664 255.704 39.256 256.984 36.76H266.008C263.896 43.352 258.072 47.768 249.688 47.768ZM242.072 26.968H257.368C256.472 22.68 253.784 20.056 249.688 20.056C245.592 20.056 242.904 22.68 242.072 26.968ZM308.212 47.768C293.108 47.768 284.98 37.016 284.98 23.96C284.98 10.904 293.108 0.151997 308.212 0.151997C320.052 0.151997 327.732 7.512 329.268 17.432H319.028C317.812 12.568 313.972 9.112 308.212 9.112C299.188 9.112 295.476 15.896 295.476 23.96C295.476 32.024 299.188 38.808 308.212 38.808C314.42 38.808 318.132 34.84 319.156 29.4H329.396C328.18 39.832 320.436 47.768 308.212 47.768ZM350.196 47.768C339.124 47.768 332.98 40.28 332.98 30.36C332.98 20.44 339.124 12.952 350.196 12.952C361.268 12.952 367.412 20.44 367.412 30.36C367.412 40.28 361.268 47.768 350.196 47.768ZM342.452 30.36C342.452 36.248 344.756 40.152 350.196 40.152C355.636 40.152 357.94 36.248 357.94 30.36C357.94 24.472 355.636 20.568 350.196 20.568C344.756 20.568 342.452 24.472 342.452 30.36ZM394.468 27.608C394.468 23.96 392.996 21.016 388.644 21.016C385.444 21.016 381.796 23.256 381.796 28.888H381.732V47H372.388V13.72H381.476V18.328C383.78 15.256 387.236 12.952 391.972 12.952C399.268 12.952 403.812 17.688 403.812 26.52V47H394.468V27.608ZM423.832 47.768C414.552 47.768 408.6 44.568 408.088 36.056H417.112C417.56 40.152 420.056 41.432 424.216 41.432C427.48 41.432 429.912 40.216 429.912 37.976C429.912 35.864 429.016 34.968 422.36 33.816C411.864 32.024 408.728 28.696 408.728 23.256C408.728 16.728 414.36 12.952 423.192 12.952C433.368 12.952 438.104 17.624 438.36 24.408H429.72C429.592 20.248 426.456 19.288 423.192 19.288C420.056 19.288 417.88 20.568 417.88 22.68C417.88 24.856 419.352 25.752 425.816 26.776C436.184 28.376 439.192 31.768 439.192 37.336C439.192 44.12 432.856 47.768 423.832 47.768ZM446.842 3.48H456.25V13.72H464.442V20.696H456.25V37.08C456.25 39.064 456.954 40.024 459.322 40.024H464.442V47H456.762C451.258 47 446.842 45.528 446.842 38.04V20.696H441.146V13.72H446.842V3.48ZM469.136 47V13.72H478.544V47H469.136ZM469.136 8.92V0.919998H478.48V8.92H469.136ZM488.28 3.48H497.688V13.72H505.88V20.696H497.688V37.08C497.688 39.064 498.392 40.024 500.76 40.024H505.88V47H498.2C492.696 47 488.28 45.528 488.28 38.04V20.696H482.584V13.72H488.28V3.48ZM519.982 33.112C519.982 36.76 521.454 39.704 525.806 39.704C529.006 39.704 532.654 37.464 532.654 31.832H532.718V13.72H542.062V47H532.974V42.392C530.67 45.464 527.214 47.768 522.478 47.768C515.182 47.768 510.638 43.032 510.638 34.2V13.72H519.982V33.112ZM551.842 3.48H561.25V13.72H569.442V20.696H561.25V37.08C561.25 39.064 561.954 40.024 564.322 40.024H569.442V47H561.762C556.258 47 551.842 45.528 551.842 38.04V20.696H546.146V13.72H551.842V3.48ZM574.136 47V13.72H583.544V47H574.136ZM574.136 8.92V0.919998H583.48V8.92H574.136ZM605.696 47.768C594.624 47.768 588.48 40.28 588.48 30.36C588.48 20.44 594.624 12.952 605.696 12.952C616.768 12.952 622.912 20.44 622.912 30.36C622.912 40.28 616.768 47.768 605.696 47.768ZM597.952 30.36C597.952 36.248 600.256 40.152 605.696 40.152C611.136 40.152 613.44 36.248 613.44 30.36C613.44 24.472 611.136 20.568 605.696 20.568C600.256 20.568 597.952 24.472 597.952 30.36ZM649.968 27.608C649.968 23.96 648.496 21.016 644.144 21.016C640.944 21.016 637.296 23.256 637.296 28.888H637.232V47H627.888V13.72H636.976V18.328C639.28 15.256 642.736 12.952 647.472 12.952C654.768 12.952 659.312 17.688 659.312 26.52V47H649.968V27.608Z" fill="black"/>
</svg>
