<svg width="500" height="63" viewBox="0 0 500 63" fill="none" xmlns="http://www.w3.org/2000/svg">
<path d="M11.808 44.472V10.552L13.792 8.632H9.76C7.15733 8.632 5.68533 9.336 5.344 10.744H3.936L0.288 5.496C0.8 4.68533 1.46133 3.96 2.272 3.32C3.08267 2.68 3.872 2.36 4.64 2.36H21.536C24.1387 2.36 25.6107 1.656 25.952 0.247997H27.36L31.008 5.496C30.496 6.30666 29.8347 7.032 29.024 7.672C28.2133 8.312 27.424 8.632 26.656 8.632H19.488V41.144C19.488 42.7227 19.6587 43.8533 20 44.536C20.3413 45.2187 21.0453 45.56 22.112 45.56V47.544L8.992 53.048L7.968 51C8.90667 51 9.80267 50.4453 10.656 49.336C11.424 48.2693 11.808 46.648 11.808 44.472ZM46.255 14.52C46.4683 14.52 47.0017 14.8613 47.855 15.544C48.7083 16.184 49.5617 17.1013 50.415 18.296C51.2683 19.448 51.695 20.5787 51.695 21.688V32.44C51.695 33.208 50.5643 34.1467 48.303 35.256C46.0417 36.3653 43.8443 37.2827 41.711 38.008C39.6203 38.6907 38.4897 39.032 38.319 39.032C38.319 42.3173 39.7483 44.344 42.607 45.112C44.015 45.4533 45.7003 45.624 47.663 45.624V47.48C40.6657 49.8267 36.9323 51 36.463 51C35.183 51 33.8817 50.104 32.559 48.312C31.2363 46.4773 30.575 44.344 30.575 41.912V20.408C30.575 20.1093 33.007 19.064 37.871 17.272C42.735 15.4373 45.5297 14.52 46.255 14.52ZM44.015 24.696C44.015 23.5013 43.7377 22.4987 43.183 21.688C42.6283 20.8347 41.9243 20.408 41.071 20.408C40.2177 20.408 39.279 20.728 38.255 21.368V36.152C42.095 35.0853 44.015 32.7813 44.015 29.24V24.696ZM65.4425 6.136V41.528C65.4425 44.1307 66.3172 45.6027 68.0665 45.944V47.352L61.6025 51C60.6638 50.616 59.7892 49.9973 58.9785 49.144C58.1678 48.248 57.7625 47.416 57.7625 46.648V11.256C57.7625 8.65333 56.8878 7.18133 55.1385 6.84V5.432L61.6025 1.784C62.5412 2.168 63.4158 2.808 64.2265 3.704C65.0372 4.55733 65.4425 5.368 65.4425 6.136ZM79.505 6.136V41.528C79.505 44.1307 80.3797 45.6027 82.129 45.944V47.352L75.665 51C74.7263 50.616 73.8517 49.9973 73.041 49.144C72.2303 48.248 71.825 47.416 71.825 46.648V11.256C71.825 8.65333 70.9503 7.18133 69.201 6.84V5.432L75.665 1.784C76.6037 2.168 77.4783 2.808 78.289 3.704C79.0997 4.55733 79.505 5.368 79.505 6.136ZM105.755 41.016C105.755 42.1253 106.075 43.0427 106.715 43.768C107.398 44.4507 108.144 44.792 108.955 44.792C109.766 44.792 110.619 44.472 111.515 43.832V23.928C111.515 21.3253 110.64 19.8533 108.891 19.512V18.104L115.355 14.456C116.294 14.84 117.168 15.48 117.979 16.376C118.79 17.2293 119.195 18.04 119.195 18.808V40.504C119.195 41.912 119.494 43.128 120.091 44.152C120.688 45.176 121.435 45.688 122.331 45.688V47.096C122.032 47.1387 119.707 48.44 115.355 51C114.374 50.5733 113.478 49.9547 112.667 49.144C111.899 48.2907 111.515 47.48 111.515 46.712L103.515 51C103.387 50.9147 103.195 50.808 102.939 50.68C102.683 50.5093 102.235 50.1893 101.595 49.72C100.998 49.208 100.464 48.6747 99.995 48.12C98.715 46.712 98.075 45.112 98.075 43.32V23.928C98.075 21.5813 97.0297 20.1947 94.939 19.768V18.36L101.915 14.456C102.854 14.84 103.728 15.48 104.539 16.376C105.35 17.2293 105.755 18.04 105.755 18.808V41.016ZM128.519 36.984C127.452 36.984 126.535 36.1733 125.767 34.552C124.999 32.9307 124.615 30.9467 124.615 28.6V21.688C124.615 20.8773 126.855 19.4907 131.335 17.528C135.815 15.5227 138.396 14.52 139.079 14.52C139.463 14.52 139.804 14.7547 140.103 15.224C140.402 15.6507 140.636 16.0133 140.807 16.312C140.978 16.568 141.234 17.0373 141.575 17.72C141.959 18.36 142.279 18.8933 142.535 19.32C143.09 20.344 143.794 20.856 144.647 20.856V22.136C143.964 22.4347 143.068 22.8827 141.959 23.48C139.228 24.9733 137.756 25.72 137.543 25.72C136.903 25.72 136.199 24.6747 135.431 22.584C134.706 20.4933 134.044 19.448 133.447 19.448C132.679 19.448 132.295 20.088 132.295 21.368V29.24C132.295 30.9467 132.679 31.8 133.447 31.8C133.618 31.8 134.94 31.2453 137.415 30.136C139.89 29.0267 141.383 28.472 141.895 28.472C142.919 28.472 143.815 29.304 144.583 30.968C145.394 32.5893 145.799 34.68 145.799 37.24V44.472C145.799 45.2827 143.346 46.6907 138.439 48.696C133.575 50.6587 130.78 51.64 130.055 51.64C129.756 51.64 129.458 51.384 129.159 50.872C128.903 50.3173 128.519 49.4853 128.007 48.376C127.538 47.2667 127.068 46.328 126.599 45.56C126.044 44.536 125.34 44.024 124.487 44.024V42.744C125.17 42.4453 126.087 41.9973 127.239 41.4C129.927 39.9067 131.378 39.16 131.591 39.16C132.231 39.16 133.02 40.4187 133.959 42.936C134.94 45.4533 135.73 46.712 136.327 46.712C136.754 46.712 137.159 46.5413 137.543 46.2C137.927 45.8587 138.119 45.3893 138.119 44.792V36.792C138.119 34.872 137.586 33.912 136.519 33.912C136.178 33.912 134.834 34.424 132.487 35.448C130.14 36.472 128.818 36.984 128.519 36.984ZM177.14 23.928C177.14 21.5813 176.095 20.1947 174.004 19.768V18.36C178.612 15.8 180.937 14.52 180.98 14.52C181.364 14.52 182.047 14.9467 183.028 15.8C184.009 16.6107 184.607 17.4853 184.82 18.424C184.905 18.3387 186.207 17.6773 188.724 16.44C191.241 15.16 192.521 14.52 192.564 14.52C193.417 14.52 194.356 15.032 195.38 16.056C197.343 18.0187 198.324 20.6427 198.324 23.928V45.048C198.324 45.432 196.041 46.52 191.476 48.312C186.911 50.104 184.073 51 182.964 51C180.959 51 179.295 49.6773 177.972 47.032C173.279 49.6773 170.313 51 169.076 51C167.839 51 166.623 50.104 165.428 48.312C164.276 46.4773 163.7 44.792 163.7 43.256V23.928C163.7 21.5813 162.655 20.1947 160.564 19.768V18.36L167.54 14.456C168.479 14.84 169.353 15.48 170.164 16.376C170.975 17.2293 171.38 18.0187 171.38 18.744V38.52C171.38 42.5733 172.639 44.6 175.156 44.6C175.796 44.6 176.457 44.472 177.14 44.216V23.928ZM184.884 39.16C184.884 40.5253 185.14 41.8053 185.652 43C186.207 44.152 186.953 44.728 187.892 44.728C188.831 44.728 189.727 44.536 190.58 44.152V26.232C190.58 24.0133 190.132 22.5413 189.236 21.816C188.34 21.048 186.889 20.6427 184.884 20.6V39.16ZM204.7 46.648V14.968C204.7 13.816 204.508 13.0053 204.124 12.536C203.74 12.024 203.079 11.768 202.14 11.768V9.976C207.687 7.07466 212.636 4.344 216.988 1.784L218.012 3.832C217.585 4.04533 216.988 4.472 216.22 5.112C215.452 5.70933 214.812 6.328 214.3 6.968C213.02 8.58933 212.38 10.424 212.38 12.472V17.912C216.775 15.6507 219.335 14.52 220.06 14.52C221.425 14.52 222.727 15.3733 223.964 17.08C225.201 18.7867 225.82 20.664 225.82 22.712V41.528C225.82 43.8747 226.865 45.2613 228.956 45.688V47.096L221.98 51C221.041 50.616 220.167 49.9973 219.356 49.144C218.545 48.248 218.14 47.416 218.14 46.648V28.088C218.14 23.9067 217.372 21.5387 215.836 20.984C215.111 20.728 213.959 20.6 212.38 20.6V41.528C212.38 44.1307 213.255 45.6027 215.004 45.944V47.352L208.54 51C207.601 50.616 206.727 49.9973 205.916 49.144C205.105 48.248 204.7 47.416 204.7 46.648ZM252.04 22.968V41.08C252.04 42.6587 252.296 43.768 252.808 44.408C253.32 45.0053 254.109 45.432 255.176 45.688V47.096L248.2 51C247.261 50.616 246.387 49.9973 245.576 49.144C244.765 48.248 244.36 47.4373 244.36 46.712L236.36 51C236.232 50.9147 236.04 50.808 235.784 50.68C235.528 50.5093 235.08 50.1893 234.44 49.72C233.843 49.208 233.309 48.6747 232.84 48.12C231.56 46.712 230.92 45.112 230.92 43.32V32.824C230.92 32.1413 232.029 31.2667 234.248 30.2C236.467 29.1333 238.685 28.2587 240.904 27.576L244.296 26.488C244.296 24.056 243.656 22.3707 242.376 21.432C241.096 20.4507 238.621 19.96 234.952 19.96V18.04C241.565 15.6933 245.277 14.52 246.088 14.52C247.496 14.52 248.84 15.4373 250.12 17.272C251.4 19.1067 252.04 21.0053 252.04 22.968ZM238.6 41.016C238.6 42.1253 238.92 43.0427 239.56 43.768C240.243 44.4507 240.989 44.792 241.8 44.792C242.611 44.792 243.464 44.472 244.36 43.832V29.368C243.293 29.752 242.483 30.072 241.928 30.328C241.416 30.584 240.861 30.9893 240.264 31.544C239.155 32.568 238.6 34.3387 238.6 36.856V41.016ZM266.13 7.864V15.48H269.394L268.754 18.616H266.13V41.528C266.13 44.1307 267.005 45.6027 268.754 45.944V47.352L262.29 51C261.351 50.616 260.477 49.9973 259.666 49.144C258.855 48.248 258.45 47.416 258.45 46.648V18.68H255.826L256.466 15.992C257.746 15.992 259.282 15.1387 261.074 13.432C262.909 11.6827 263.997 9.82667 264.338 7.864H266.13ZM284.7 46.648V14.968C284.7 13.816 284.508 13.0053 284.124 12.536C283.74 12.024 283.079 11.768 282.14 11.768V9.976C287.687 7.07466 292.636 4.344 296.988 1.784L298.012 3.832C297.585 4.04533 296.988 4.472 296.22 5.112C295.452 5.70933 294.812 6.328 294.3 6.968C293.02 8.58933 292.38 10.424 292.38 12.472V17.912C296.775 15.6507 299.335 14.52 300.06 14.52C301.425 14.52 302.727 15.3733 303.964 17.08C305.201 18.7867 305.82 20.664 305.82 22.712V41.528C305.82 43.8747 306.865 45.2613 308.956 45.688V47.096L301.98 51C301.041 50.616 300.167 49.9973 299.356 49.144C298.545 48.248 298.14 47.416 298.14 46.648V28.088C298.14 23.9067 297.372 21.5387 295.836 20.984C295.111 20.728 293.959 20.6 292.38 20.6V41.528C292.38 44.1307 293.255 45.6027 295.004 45.944V47.352L288.54 51C287.601 50.616 286.727 49.9973 285.916 49.144C285.105 48.248 284.7 47.416 284.7 46.648ZM332.04 22.968V41.08C332.04 42.6587 332.296 43.768 332.808 44.408C333.32 45.0053 334.109 45.432 335.176 45.688V47.096L328.2 51C327.261 50.616 326.387 49.9973 325.576 49.144C324.765 48.248 324.36 47.4373 324.36 46.712L316.36 51C316.232 50.9147 316.04 50.808 315.784 50.68C315.528 50.5093 315.08 50.1893 314.44 49.72C313.843 49.208 313.309 48.6747 312.84 48.12C311.56 46.712 310.92 45.112 310.92 43.32V32.824C310.92 32.1413 312.029 31.2667 314.248 30.2C316.467 29.1333 318.685 28.2587 320.904 27.576L324.296 26.488C324.296 24.056 323.656 22.3707 322.376 21.432C321.096 20.4507 318.621 19.96 314.952 19.96V18.04C321.565 15.6933 325.277 14.52 326.088 14.52C327.496 14.52 328.84 15.4373 330.12 17.272C331.4 19.1067 332.04 21.0053 332.04 22.968ZM318.6 41.016C318.6 42.1253 318.92 43.0427 319.56 43.768C320.243 44.4507 320.989 44.792 321.8 44.792C322.611 44.792 323.464 44.472 324.36 43.832V29.368C323.293 29.752 322.483 30.072 321.928 30.328C321.416 30.584 320.861 30.9893 320.264 31.544C319.155 32.568 318.6 34.3387 318.6 36.856V41.016ZM348.69 20.472C347.879 20.472 347.047 20.8133 346.194 21.496V46.904C347.303 46.904 348.541 46.5413 349.906 45.816C351.271 45.0907 351.954 44.3227 351.954 43.512V25.208C351.954 22.0507 350.866 20.472 348.69 20.472ZM338.45 58.04V24.376C338.45 23.3947 338.173 22.4347 337.618 21.496C337.106 20.5573 336.359 20.024 335.378 19.896V18.488C335.677 18.4453 338.002 17.144 342.354 14.584C343.335 15.0107 344.21 15.6507 344.978 16.504C345.789 17.3147 346.194 18.0827 346.194 18.808C350.759 15.992 353.426 14.584 354.194 14.584C354.493 14.584 355.047 14.9253 355.858 15.608C356.711 16.248 357.543 17.208 358.354 18.488C359.207 19.7253 359.634 21.0053 359.634 22.328V45.112C359.634 45.4107 357.735 46.3067 353.938 47.8C350.183 49.2507 347.581 50.168 346.13 50.552V52.92C346.13 55.5227 347.005 56.9947 348.754 57.336V58.744L342.29 62.392C341.351 62.008 340.477 61.368 339.666 60.472C338.855 59.6187 338.45 58.808 338.45 58.04ZM376.19 20.472C375.379 20.472 374.547 20.8133 373.694 21.496V46.904C374.803 46.904 376.041 46.5413 377.406 45.816C378.771 45.0907 379.454 44.3227 379.454 43.512V25.208C379.454 22.0507 378.366 20.472 376.19 20.472ZM365.95 58.04V24.376C365.95 23.3947 365.673 22.4347 365.118 21.496C364.606 20.5573 363.859 20.024 362.878 19.896V18.488C363.177 18.4453 365.502 17.144 369.854 14.584C370.835 15.0107 371.71 15.6507 372.478 16.504C373.289 17.3147 373.694 18.0827 373.694 18.808C378.259 15.992 380.926 14.584 381.694 14.584C381.993 14.584 382.547 14.9253 383.358 15.608C384.211 16.248 385.043 17.208 385.854 18.488C386.707 19.7253 387.134 21.0053 387.134 22.328V45.112C387.134 45.4107 385.235 46.3067 381.438 47.8C377.683 49.2507 375.081 50.168 373.63 50.552V52.92C373.63 55.5227 374.505 56.9947 376.254 57.336V58.744L369.79 62.392C368.851 62.008 367.977 61.368 367.166 60.472C366.355 59.6187 365.95 58.808 365.95 58.04ZM409.13 14.52C409.343 14.52 409.877 14.8613 410.73 15.544C411.583 16.184 412.437 17.1013 413.29 18.296C414.143 19.448 414.57 20.5787 414.57 21.688V32.44C414.57 33.208 413.439 34.1467 411.178 35.256C408.917 36.3653 406.719 37.2827 404.586 38.008C402.495 38.6907 401.365 39.032 401.194 39.032C401.194 42.3173 402.623 44.344 405.482 45.112C406.89 45.4533 408.575 45.624 410.538 45.624V47.48C403.541 49.8267 399.807 51 399.338 51C398.058 51 396.757 50.104 395.434 48.312C394.111 46.4773 393.45 44.344 393.45 41.912V20.408C393.45 20.1093 395.882 19.064 400.746 17.272C405.61 15.4373 408.405 14.52 409.13 14.52ZM406.89 24.696C406.89 23.5013 406.613 22.4987 406.058 21.688C405.503 20.8347 404.799 20.408 403.946 20.408C403.093 20.408 402.154 20.728 401.13 21.368V36.152C404.97 35.0853 406.89 32.7813 406.89 29.24V24.696ZM420.638 46.648V24.952C420.638 23.544 420.339 22.328 419.742 21.304C419.144 20.28 418.398 19.768 417.502 19.768V18.36C417.8 18.3173 420.126 17.016 424.478 14.456C424.776 14.5413 425.139 14.6693 425.566 14.84C425.992 14.968 426.547 15.3733 427.23 16.056C427.955 16.7387 428.318 17.528 428.318 18.424C428.574 18.296 429.299 17.8907 430.494 17.208C433.651 15.416 435.528 14.52 436.126 14.52C437.491 14.52 438.771 15.416 439.966 17.208C441.16 19 441.758 20.6427 441.758 22.136V41.528C441.758 43.8747 442.803 45.2613 444.894 45.688V47.096L437.918 51C436.979 50.616 436.104 49.9973 435.294 49.144C434.483 48.248 434.078 47.416 434.078 46.648V28.088C434.078 25.6987 433.8 23.8853 433.246 22.648C432.734 21.368 431.795 20.728 430.43 20.728L428.318 21.112V41.528C428.318 44.1307 429.192 45.6027 430.942 45.944V47.352L424.478 51C423.539 50.616 422.664 49.9973 421.854 49.144C421.043 48.248 420.638 47.416 420.638 46.648ZM463.818 14.52C464.031 14.52 464.564 14.8613 465.418 15.544C466.271 16.184 467.124 17.1013 467.978 18.296C468.831 19.448 469.258 20.5787 469.258 21.688V32.44C469.258 33.208 468.127 34.1467 465.866 35.256C463.604 36.3653 461.407 37.2827 459.274 38.008C457.183 38.6907 456.052 39.032 455.882 39.032C455.882 42.3173 457.311 44.344 460.17 45.112C461.578 45.4533 463.263 45.624 465.226 45.624V47.48C458.228 49.8267 454.495 51 454.026 51C452.746 51 451.444 50.104 450.122 48.312C448.799 46.4773 448.138 44.344 448.138 41.912V20.408C448.138 20.1093 450.57 19.064 455.434 17.272C460.298 15.4373 463.092 14.52 463.818 14.52ZM461.578 24.696C461.578 23.5013 461.3 22.4987 460.746 21.688C460.191 20.8347 459.487 20.408 458.634 20.408C457.78 20.408 456.842 20.728 455.818 21.368V36.152C459.658 35.0853 461.578 32.7813 461.578 29.24V24.696ZM487.357 1.72C488.509 1.72 490.322 4.51466 492.797 10.104C495.272 15.6933 496.509 19.5547 496.509 21.688V41.208C496.509 42.1893 496.765 43.1493 497.277 44.088C497.832 45.0267 498.6 45.56 499.581 45.688V47.096C499.282 47.1387 496.957 48.44 492.605 51C491.624 50.5733 490.728 49.9547 489.917 49.144C489.149 48.2907 488.765 47.5013 488.765 46.776C484.2 49.592 481.533 51 480.765 51C480.466 51 479.89 50.68 479.037 50.04C478.226 49.3573 477.394 48.3973 476.541 47.16C475.73 45.88 475.325 44.5787 475.325 43.256V20.408C475.325 19.9813 478.93 18.5093 486.141 15.992C484.605 12.6213 483.368 10.2533 482.429 8.888C481.49 7.52266 480.573 6.84 479.677 6.84H477.565V4.92C482.301 2.78666 485.565 1.72 487.357 1.72ZM486.269 45.112C487.08 45.112 487.912 44.7707 488.765 44.088V21.816C488.765 21.56 488.573 21.0267 488.189 20.216C487.848 19.3627 487.592 18.936 487.421 18.936C486.184 18.936 484.925 19.32 483.645 20.088L483.005 20.472V40.376C483.005 43.5333 484.093 45.112 486.269 45.112Z" fill="black"/>
</svg>
