<svg width="460" height="54" viewBox="0 0 460 54" fill="none" xmlns="http://www.w3.org/2000/svg">
<path d="M14.376 7.992C13.608 7.992 12.776 8.312 11.88 8.952V29.752C12.9893 29.752 14.2267 29.4107 15.592 28.728C16.9573 28.0027 17.64 27.256 17.64 26.488V12.728C17.64 9.57066 16.552 7.992 14.376 7.992ZM4.2 44.472V11.32C4.2 8.71733 3.32533 7.24533 1.576 6.904V5.496L8.04 1.848C8.89333 2.18933 9.74667 2.808 10.6 3.704C11.4533 4.6 11.88 5.41066 11.88 6.136C16.5733 3.27733 19.2613 1.848 19.944 1.848C20.6267 1.848 21.6933 2.72267 23.144 4.472C24.6373 6.22133 25.384 7.8 25.384 9.208V27.192C25.384 27.5333 23.0587 28.6213 18.408 30.456C20.3707 37.0693 22.6747 41.528 25.32 43.832C26.5147 44.8133 27.7307 45.304 28.968 45.304V47.224C25 49.7413 22.4827 51 21.416 51C20.008 51 18.216 48.3547 16.04 43.064C13.9067 37.7733 12.7547 34.2747 12.584 32.568L11.88 32.76V41.144C11.88 42.7227 12.0507 43.8533 12.392 44.536C12.7333 45.2187 13.4373 45.56 14.504 45.56V47.544L1.384 53.048L0.36 51C1.29867 51 2.19467 50.4453 3.048 49.336C3.816 48.2693 4.2 46.648 4.2 44.472ZM47.505 14.52C47.7183 14.52 48.2517 14.8613 49.105 15.544C49.9583 16.184 50.8117 17.1013 51.665 18.296C52.5183 19.448 52.945 20.5787 52.945 21.688V32.44C52.945 33.208 51.8143 34.1467 49.553 35.256C47.2917 36.3653 45.0943 37.2827 42.961 38.008C40.8703 38.6907 39.7397 39.032 39.569 39.032C39.569 42.3173 40.9983 44.344 43.857 45.112C45.265 45.4533 46.9503 45.624 48.913 45.624V47.48C41.9157 49.8267 38.1823 51 37.713 51C36.433 51 35.1317 50.104 33.809 48.312C32.4863 46.4773 31.825 44.344 31.825 41.912V20.408C31.825 20.1093 34.257 19.064 39.121 17.272C43.985 15.4373 46.7797 14.52 47.505 14.52ZM45.265 24.696C45.265 23.5013 44.9877 22.4987 44.433 21.688C43.8783 20.8347 43.1743 20.408 42.321 20.408C41.4677 20.408 40.529 20.728 39.505 21.368V36.152C43.345 35.0853 45.265 32.7813 45.265 29.24V24.696ZM75.665 22.968V41.08C75.665 42.6587 75.921 43.768 76.433 44.408C76.945 45.0053 77.7343 45.432 78.801 45.688V47.096L71.825 51C70.8863 50.616 70.0117 49.9973 69.201 49.144C68.3903 48.248 67.985 47.4373 67.985 46.712L59.985 51C59.857 50.9147 59.665 50.808 59.409 50.68C59.153 50.5093 58.705 50.1893 58.065 49.72C57.4677 49.208 56.9343 48.6747 56.465 48.12C55.185 46.712 54.545 45.112 54.545 43.32V32.824C54.545 32.1413 55.6543 31.2667 57.873 30.2C60.0917 29.1333 62.3103 28.2587 64.529 27.576L67.921 26.488C67.921 24.056 67.281 22.3707 66.001 21.432C64.721 20.4507 62.2463 19.96 58.577 19.96V18.04C65.1903 15.6933 68.9023 14.52 69.713 14.52C71.121 14.52 72.465 15.4373 73.745 17.272C75.025 19.1067 75.665 21.0053 75.665 22.968ZM62.225 41.016C62.225 42.1253 62.545 43.0427 63.185 43.768C63.8677 44.4507 64.6143 44.792 65.425 44.792C66.2357 44.792 67.089 44.472 67.985 43.832V29.368C66.9183 29.752 66.1077 30.072 65.553 30.328C65.041 30.584 64.4863 30.9893 63.889 31.544C62.7797 32.568 62.225 34.3387 62.225 36.856V41.016ZM94.107 1.72C95.259 1.72 97.0723 4.51466 99.547 10.104C102.022 15.6933 103.259 19.5547 103.259 21.688V41.208C103.259 42.1893 103.515 43.1493 104.027 44.088C104.582 45.0267 105.35 45.56 106.331 45.688V47.096C106.032 47.1387 103.707 48.44 99.355 51C98.3737 50.5733 97.4777 49.9547 96.667 49.144C95.899 48.2907 95.515 47.5013 95.515 46.776C90.9497 49.592 88.283 51 87.515 51C87.2163 51 86.6403 50.68 85.787 50.04C84.9763 49.3573 84.1443 48.3973 83.291 47.16C82.4803 45.88 82.075 44.5787 82.075 43.256V20.408C82.075 19.9813 85.6803 18.5093 92.891 15.992C91.355 12.6213 90.1177 10.2533 89.179 8.888C88.2403 7.52266 87.323 6.84 86.427 6.84H84.315V4.92C89.051 2.78666 92.315 1.72 94.107 1.72ZM93.019 45.112C93.8297 45.112 94.6617 44.7707 95.515 44.088V21.816C95.515 21.56 95.323 21.0267 94.939 20.216C94.5977 19.3627 94.3417 18.936 94.171 18.936C92.9337 18.936 91.675 19.32 90.395 20.088L89.755 20.472V40.376C89.755 43.5333 90.843 45.112 93.019 45.112ZM129.443 7.864V15.48H132.707L132.067 18.616H129.443V41.528C129.443 44.1307 130.317 45.6027 132.067 45.944V47.352L125.603 51C124.664 50.616 123.789 49.9973 122.979 49.144C122.168 48.248 121.763 47.416 121.763 46.648V18.68H119.139L119.779 15.992C121.059 15.992 122.595 15.1387 124.387 13.432C126.221 11.6827 127.309 9.82667 127.651 7.864H129.443ZM135.825 46.648V14.968C135.825 13.816 135.633 13.0053 135.249 12.536C134.865 12.024 134.204 11.768 133.265 11.768V9.976C138.812 7.07466 143.761 4.344 148.113 1.784L149.137 3.832C148.71 4.04533 148.113 4.472 147.345 5.112C146.577 5.70933 145.937 6.328 145.425 6.968C144.145 8.58933 143.505 10.424 143.505 12.472V17.912C147.9 15.6507 150.46 14.52 151.185 14.52C152.55 14.52 153.852 15.3733 155.089 17.08C156.326 18.7867 156.945 20.664 156.945 22.712V41.528C156.945 43.8747 157.99 45.2613 160.081 45.688V47.096L153.105 51C152.166 50.616 151.292 49.9973 150.481 49.144C149.67 48.248 149.265 47.416 149.265 46.648V28.088C149.265 23.9067 148.497 21.5387 146.961 20.984C146.236 20.728 145.084 20.6 143.505 20.6V41.528C143.505 44.1307 144.38 45.6027 146.129 45.944V47.352L139.665 51C138.726 50.616 137.852 49.9973 137.041 49.144C136.23 48.248 135.825 47.416 135.825 46.648ZM179.005 14.52C179.218 14.52 179.752 14.8613 180.605 15.544C181.458 16.184 182.312 17.1013 183.165 18.296C184.018 19.448 184.445 20.5787 184.445 21.688V32.44C184.445 33.208 183.314 34.1467 181.053 35.256C178.792 36.3653 176.594 37.2827 174.461 38.008C172.37 38.6907 171.24 39.032 171.069 39.032C171.069 42.3173 172.498 44.344 175.357 45.112C176.765 45.4533 178.45 45.624 180.413 45.624V47.48C173.416 49.8267 169.682 51 169.213 51C167.933 51 166.632 50.104 165.309 48.312C163.986 46.4773 163.325 44.344 163.325 41.912V20.408C163.325 20.1093 165.757 19.064 170.621 17.272C175.485 15.4373 178.28 14.52 179.005 14.52ZM176.765 24.696C176.765 23.5013 176.488 22.4987 175.933 21.688C175.378 20.8347 174.674 20.408 173.821 20.408C172.968 20.408 172.029 20.728 171.005 21.368V36.152C174.845 35.0853 176.765 32.7813 176.765 29.24V24.696ZM211.532 7.928C211.105 7.928 210.721 8.14133 210.38 8.568V35C210.38 36.792 210.487 38.2427 210.7 39.352C210.913 40.4187 211.383 41.4853 212.108 42.552C213.516 44.6 216.737 45.624 221.772 45.624V47.48C221.559 47.48 219.98 48.0773 217.036 49.272C214.092 50.424 212.3 51 211.66 51C209.527 51 207.5 49.784 205.58 47.352C203.66 44.8773 202.7 42.2747 202.7 39.544V7.608C202.7 7.30933 205.132 6.264 209.996 4.472C214.903 2.63733 217.719 1.72 218.444 1.72C218.7 1.72 218.999 2.33866 219.34 3.576C219.681 4.81333 220.065 6.30667 220.492 8.056C220.961 9.80533 221.431 11.1067 221.9 11.96C222.412 12.7707 223.351 13.176 224.716 13.176V14.456C223.777 14.8827 222.177 15.6507 219.916 16.76C217.697 17.8267 216.503 18.36 216.332 18.36C215.692 18.36 214.881 16.632 213.9 13.176C212.919 9.67733 212.129 7.928 211.532 7.928ZM228.575 41.656V20.408C228.575 20.1093 231.007 19.064 235.871 17.272C240.735 15.4373 243.53 14.52 244.255 14.52C244.98 14.52 246.068 15.3947 247.519 17.144C249.012 18.8933 249.759 20.472 249.759 21.88V45.048C249.759 45.3893 247.412 46.4773 242.719 48.312C238.068 50.104 235.21 51 234.143 51C233.119 51 231.924 50.0827 230.559 48.248C229.236 46.4133 228.575 44.216 228.575 41.656ZM239.519 45.112C240.33 45.112 241.162 44.7707 242.015 44.088V25.208C242.015 22.0507 240.927 20.472 238.751 20.472C237.898 20.472 237.066 20.792 236.255 21.432V40.376C236.255 43.5333 237.343 45.112 239.519 45.112ZM256.138 46.648V24.952C256.138 23.544 255.839 22.328 255.242 21.304C254.644 20.28 253.898 19.768 253.002 19.768V18.36C253.3 18.3173 255.626 17.016 259.978 14.456C260.276 14.5413 260.639 14.6693 261.066 14.84C261.492 14.968 262.047 15.3733 262.73 16.056C263.455 16.7387 263.818 17.528 263.818 18.424C264.074 18.296 264.799 17.8907 265.994 17.208C269.151 15.416 271.028 14.52 271.626 14.52C272.991 14.52 274.271 15.416 275.466 17.208C276.66 19 277.258 20.6427 277.258 22.136V41.528C277.258 43.8747 278.303 45.2613 280.394 45.688V47.096L273.418 51C272.479 50.616 271.604 49.9973 270.794 49.144C269.983 48.248 269.578 47.416 269.578 46.648V28.088C269.578 25.6987 269.3 23.8853 268.746 22.648C268.234 21.368 267.295 20.728 265.93 20.728L263.818 21.112V41.528C263.818 44.1307 264.692 45.6027 266.442 45.944V47.352L259.978 51C259.039 50.616 258.164 49.9973 257.354 49.144C256.543 48.248 256.138 47.416 256.138 46.648ZM286.582 36.984C285.515 36.984 284.598 36.1733 283.83 34.552C283.062 32.9307 282.678 30.9467 282.678 28.6V21.688C282.678 20.8773 284.918 19.4907 289.398 17.528C293.878 15.5227 296.459 14.52 297.142 14.52C297.526 14.52 297.867 14.7547 298.166 15.224C298.464 15.6507 298.699 16.0133 298.87 16.312C299.04 16.568 299.296 17.0373 299.638 17.72C300.022 18.36 300.342 18.8933 300.598 19.32C301.152 20.344 301.856 20.856 302.71 20.856V22.136C302.027 22.4347 301.131 22.8827 300.022 23.48C297.291 24.9733 295.819 25.72 295.606 25.72C294.966 25.72 294.262 24.6747 293.494 22.584C292.768 20.4933 292.107 19.448 291.51 19.448C290.742 19.448 290.358 20.088 290.358 21.368V29.24C290.358 30.9467 290.742 31.8 291.51 31.8C291.68 31.8 293.003 31.2453 295.478 30.136C297.952 29.0267 299.446 28.472 299.958 28.472C300.982 28.472 301.878 29.304 302.646 30.968C303.456 32.5893 303.862 34.68 303.862 37.24V44.472C303.862 45.2827 301.408 46.6907 296.502 48.696C291.638 50.6587 288.843 51.64 288.118 51.64C287.819 51.64 287.52 51.384 287.222 50.872C286.966 50.3173 286.582 49.4853 286.07 48.376C285.6 47.2667 285.131 46.328 284.661 45.56C284.107 44.536 283.403 44.024 282.549 44.024V42.744C283.232 42.4453 284.15 41.9973 285.302 41.4C287.99 39.9067 289.44 39.16 289.654 39.16C290.294 39.16 291.083 40.4187 292.022 42.936C293.003 45.4533 293.792 46.712 294.39 46.712C294.816 46.712 295.222 46.5413 295.606 46.2C295.99 45.8587 296.182 45.3893 296.182 44.792V36.792C296.182 34.872 295.648 33.912 294.582 33.912C294.24 33.912 292.896 34.424 290.55 35.448C288.203 36.472 286.88 36.984 286.582 36.984ZM317.255 7.864V15.48H320.519L319.879 18.616H317.255V41.528C317.255 44.1307 318.13 45.6027 319.879 45.944V47.352L313.415 51C312.476 50.616 311.602 49.9973 310.791 49.144C309.98 48.248 309.575 47.416 309.575 46.648V18.68H306.951L307.591 15.992C308.871 15.992 310.407 15.1387 312.199 13.432C314.034 11.6827 315.122 9.82667 315.463 7.864H317.255ZM331.318 18.872V41.528C331.318 44.1307 332.192 45.6027 333.942 45.944V47.352L327.478 51C326.539 50.616 325.664 49.9973 324.854 49.144C324.043 48.248 323.638 47.416 323.638 46.648V23.992C323.638 21.3893 322.763 19.9173 321.014 19.576V18.168L327.478 14.52C328.416 14.904 329.291 15.544 330.102 16.44C330.912 17.2933 331.318 18.104 331.318 18.872ZM322.678 6.52V2.616C322.678 2.488 323.552 2.104 325.302 1.464C327.094 0.781331 328.118 0.439999 328.374 0.439999C328.672 0.439999 329.078 0.802664 329.59 1.528C330.144 2.25333 330.422 3 330.422 3.768V8.44C330.422 8.568 329.568 8.97333 327.862 9.656C326.155 10.296 325.11 10.616 324.726 10.616C324.342 10.616 323.894 10.2533 323.382 9.528C322.912 8.76 322.678 7.75733 322.678 6.52ZM345.38 7.864V15.48H348.644L348.004 18.616H345.38V41.528C345.38 44.1307 346.255 45.6027 348.004 45.944V47.352L341.54 51C340.601 50.616 339.727 49.9973 338.916 49.144C338.105 48.248 337.7 47.416 337.7 46.648V18.68H335.076L335.716 15.992C336.996 15.992 338.532 15.1387 340.324 13.432C342.159 11.6827 343.247 9.82667 343.588 7.864H345.38ZM359.443 41.016C359.443 42.1253 359.763 43.0427 360.403 43.768C361.085 44.4507 361.832 44.792 362.643 44.792C363.453 44.792 364.307 44.472 365.203 43.832V23.928C365.203 21.3253 364.328 19.8533 362.579 19.512V18.104L369.043 14.456C369.981 14.84 370.856 15.48 371.667 16.376C372.477 17.2293 372.883 18.04 372.883 18.808V40.504C372.883 41.912 373.181 43.128 373.779 44.152C374.376 45.176 375.123 45.688 376.019 45.688V47.096C375.72 47.1387 373.395 48.44 369.043 51C368.061 50.5733 367.165 49.9547 366.355 49.144C365.587 48.2907 365.203 47.48 365.203 46.712L357.203 51C357.075 50.9147 356.883 50.808 356.627 50.68C356.371 50.5093 355.923 50.1893 355.283 49.72C354.685 49.208 354.152 48.6747 353.683 48.12C352.403 46.712 351.763 45.112 351.763 43.32V23.928C351.763 21.5813 350.717 20.1947 348.627 19.768V18.36L355.603 14.456C356.541 14.84 357.416 15.48 358.227 16.376C359.037 17.2293 359.443 18.04 359.443 18.808V41.016ZM386.943 7.864V15.48H390.207L389.567 18.616H386.943V41.528C386.943 44.1307 387.817 45.6027 389.567 45.944V47.352L383.103 51C382.164 50.616 381.289 49.9973 380.479 49.144C379.668 48.248 379.263 47.416 379.263 46.648V18.68H376.639L377.279 15.992C378.559 15.992 380.095 15.1387 381.887 13.432C383.721 11.6827 384.809 9.82667 385.151 7.864H386.943ZM401.005 18.872V41.528C401.005 44.1307 401.88 45.6027 403.629 45.944V47.352L397.165 51C396.226 50.616 395.352 49.9973 394.541 49.144C393.73 48.248 393.325 47.416 393.325 46.648V23.992C393.325 21.3893 392.45 19.9173 390.701 19.576V18.168L397.165 14.52C398.104 14.904 398.978 15.544 399.789 16.44C400.6 17.2933 401.005 18.104 401.005 18.872ZM392.365 6.52V2.616C392.365 2.488 393.24 2.104 394.989 1.464C396.781 0.781331 397.805 0.439999 398.061 0.439999C398.36 0.439999 398.765 0.802664 399.277 1.528C399.832 2.25333 400.109 3 400.109 3.768V8.44C400.109 8.568 399.256 8.97333 397.549 9.656C395.842 10.296 394.797 10.616 394.413 10.616C394.029 10.616 393.581 10.2533 393.069 9.528C392.6 8.76 392.365 7.75733 392.365 6.52ZM407.388 41.656V20.408C407.388 20.1093 409.82 19.064 414.684 17.272C419.548 15.4373 422.342 14.52 423.068 14.52C423.793 14.52 424.881 15.3947 426.332 17.144C427.825 18.8933 428.572 20.472 428.572 21.88V45.048C428.572 45.3893 426.225 46.4773 421.532 48.312C416.881 50.104 414.022 51 412.956 51C411.932 51 410.737 50.0827 409.372 48.248C408.049 46.4133 407.388 44.216 407.388 41.656ZM418.332 45.112C419.142 45.112 419.974 44.7707 420.828 44.088V25.208C420.828 22.0507 419.74 20.472 417.564 20.472C416.71 20.472 415.878 20.792 415.068 21.432V40.376C415.068 43.5333 416.156 45.112 418.332 45.112ZM434.95 46.648V24.952C434.95 23.544 434.651 22.328 434.054 21.304C433.457 20.28 432.71 19.768 431.814 19.768V18.36C432.113 18.3173 434.438 17.016 438.79 14.456C439.089 14.5413 439.451 14.6693 439.878 14.84C440.305 14.968 440.859 15.3733 441.542 16.056C442.267 16.7387 442.63 17.528 442.63 18.424C442.886 18.296 443.611 17.8907 444.806 17.208C447.963 15.416 449.841 14.52 450.438 14.52C451.803 14.52 453.083 15.416 454.278 17.208C455.473 19 456.07 20.6427 456.07 22.136V41.528C456.07 43.8747 457.115 45.2613 459.206 45.688V47.096L452.23 51C451.291 50.616 450.417 49.9973 449.606 49.144C448.795 48.248 448.39 47.416 448.39 46.648V28.088C448.39 25.6987 448.113 23.8853 447.558 22.648C447.046 21.368 446.107 20.728 444.742 20.728L442.63 21.112V41.528C442.63 44.1307 443.505 45.6027 445.254 45.944V47.352L438.79 51C437.851 50.616 436.977 49.9973 436.166 49.144C435.355 48.248 434.95 47.416 434.95 46.648Z" fill="black"/>
</svg>
