<svg width="219" height="216" viewBox="0 0 219 216" fill="none" xmlns="http://www.w3.org/2000/svg">
<path d="M214.507 191.883C217.1 194.438 218.728 197.845 218.827 201.457C218.954 206.126 216.739 210.478 212.726 213.219C211.141 214.302 209.325 215.037 207.426 215.367C202.775 216.174 198.239 214.744 195.01 211.561L81.6721 99.9039L101.408 80.4604L214.507 191.883Z" fill="#B9785F"/>
<path d="M84.9602 103.143L104.696 83.6998C106.513 81.91 106.513 79.0079 104.696 77.2187L91.5388 64.2563L65.2239 90.1815L78.3811 103.143C80.1978 104.933 83.143 104.933 84.9602 103.143Z" fill="#AA6955"/>
<path d="M101.407 67.4967C103.224 65.7069 103.224 62.8048 101.407 61.0155L75.092 35.0904C73.2753 33.3006 70.3301 33.3006 68.5134 35.0904C66.6967 36.8802 66.6967 39.7823 68.5134 41.5715L94.8284 67.4967C96.6451 69.2864 99.5908 69.2864 101.407 67.4967Z" fill="#B9785F"/>
<path d="M68.5125 99.9024C70.3292 98.1126 70.3292 95.2105 68.5125 93.4213L42.1975 67.4961C40.3808 65.7064 37.4351 65.7064 35.6189 67.4961C33.8022 69.2859 33.8022 72.1875 35.6189 73.9773L61.9339 99.9024C63.7511 101.693 66.6963 101.693 68.5125 99.9024Z" fill="#B9785F"/>
<path d="M94.8297 67.4981L68.5156 93.4224L42.2015 67.4981L68.5156 41.5738L94.8297 67.4981Z" fill="#FFD782"/>
<path d="M94.8297 67.4981L68.5156 93.4224L61.9372 86.9414L88.2513 61.0171L94.8297 67.4981Z" fill="#FFC36E"/>
<path d="M134.299 48.0529C137.932 44.4738 137.932 38.6701 134.299 35.0906L101.405 2.68429C97.7723 -0.894763 91.8814 -0.894763 88.248 2.68429C84.6151 6.26334 84.6151 12.067 88.248 15.6466L121.142 48.0529C124.774 51.6319 130.665 51.6319 134.299 48.0529Z" fill="#B9785F"/>
<path d="M48.7753 132.308C52.4082 128.729 52.4082 122.926 48.7753 119.346L15.8818 86.9397C12.2489 83.3606 6.35792 83.3606 2.72452 86.9397C-0.908354 90.5187 -0.908354 96.3224 2.72452 99.902L35.6181 132.308C39.2515 135.888 45.1425 135.888 48.7753 132.308Z" fill="#B9785F"/>
<path d="M117.856 51.2935C119.673 49.5038 119.673 46.6017 117.856 44.8124L91.5412 18.8873C89.7245 17.0975 86.7793 17.0975 84.9626 18.8873C83.1459 20.677 83.1459 23.5791 84.9626 25.3684L111.278 51.2935C113.094 53.0833 116.04 53.0833 117.856 51.2935Z" fill="#FFC36E"/>
<path d="M52.0711 116.106C53.8878 114.316 53.8878 111.414 52.0711 109.625L25.7561 83.6998C23.9394 81.91 20.9936 81.91 19.1775 83.6998C17.3608 85.4895 17.3608 88.3911 19.1775 90.1809L45.4925 116.106C47.3092 117.895 50.2544 117.895 52.0711 116.106Z" fill="#FFC36E"/>
<path d="M75.0965 35.0895L91.543 18.8867L117.857 44.811L101.411 61.0138L75.0965 35.0895Z" fill="#AA6955"/>
<path d="M19.1746 90.1857L35.6211 73.9829L61.9352 99.9072L45.4887 116.11L19.1746 90.1857Z" fill="#AA6955"/>
</svg>
