<svg width="131" height="37" viewBox="0 0 131 37" fill="none" xmlns="http://www.w3.org/2000/svg">
<path d="M13.9549 18.3317H116.295V4.58279C116.295 2.05164 114.212 0 111.643 0H18.6066C16.0374 0 13.9549 2.05216 13.9549 4.58279V18.3317Z" fill="#B9785F"/>
<path d="M4.65174 32.0807H125.6V22.9146C125.6 17.8523 121.435 13.7485 116.296 13.7485H13.9551C8.8167 13.7485 4.65121 17.8518 4.65121 22.9146V32.0807H4.65174Z" fill="#AA6955"/>
<path d="M4.65239 36.6636H125.6C128.169 36.6636 130.252 34.6115 130.252 32.0808C130.252 29.5497 128.169 27.498 125.6 27.498H4.65239C2.08317 27.498 0.000686169 29.5502 0.000686169 32.0808C0.000686169 34.612 2.0837 36.6636 4.65239 36.6636Z" fill="#FFC36E"/>
</svg>
