<svg width="270" height="266" viewBox="0 0 270 266" fill="none" xmlns="http://www.w3.org/2000/svg">
<path d="M265.675 210.311C268.268 212.865 269.896 216.273 269.995 219.884C270.122 224.553 267.907 228.906 263.894 231.647C262.309 232.729 260.493 233.464 258.594 233.794C253.943 234.602 249.407 233.171 246.178 229.988L132.84 118.331L152.576 98.8877L265.675 210.311Z" fill="#B9785F"/>
<path d="M136.128 121.571L155.864 102.127C157.681 100.337 157.681 97.4352 155.864 95.6459L142.707 82.6836L116.392 108.609L129.549 121.571C131.366 123.36 134.311 123.36 136.128 121.571Z" fill="#AA6955"/>
<path d="M152.575 85.9239C154.392 84.1341 154.392 81.232 152.575 79.4428L126.26 53.5176C124.443 51.7278 121.498 51.7278 119.681 53.5176C117.865 55.3074 117.865 58.2095 119.681 59.9988L145.996 85.9239C147.813 87.7137 150.759 87.7137 152.575 85.9239Z" fill="#B9785F"/>
<path d="M119.68 118.33C121.497 116.54 121.497 113.638 119.68 111.849L93.3655 85.9234C91.5488 84.1336 88.603 84.1336 86.7868 85.9234C84.9701 87.7132 84.9701 90.6148 86.7868 92.4045L113.102 118.33C114.919 120.12 117.864 120.12 119.68 118.33Z" fill="#B9785F"/>
<path d="M145.998 85.9254L119.684 111.85L93.3695 85.9253L119.684 60.0011L145.998 85.9254Z" fill="#FFD782"/>
<path d="M145.998 85.9254L119.684 111.85L113.105 105.369L139.419 79.4444L145.998 85.9254Z" fill="#FFC36E"/>
<path d="M185.469 66.4801C189.102 62.9011 189.102 57.0974 185.469 53.5178L152.575 21.1115C148.942 17.5325 143.051 17.5325 139.418 21.1115C135.785 24.6906 135.785 30.4943 139.418 34.0738L172.311 66.4801C175.944 70.0592 181.835 70.0592 185.469 66.4801Z" fill="#B9785F"/>
<path d="M99.9453 150.735C103.578 147.156 103.578 141.353 99.9453 137.773L67.0517 105.367C63.4188 101.788 57.5278 101.788 53.8944 105.367C50.2616 108.946 50.2616 114.75 53.8944 118.329L86.788 150.735C90.4214 154.315 96.3124 154.315 99.9453 150.735Z" fill="#B9785F"/>
<path d="M126.263 53.5168L142.709 37.314L169.023 63.2382L152.577 79.441L126.263 53.5168Z" fill="#AA6955"/>
<path d="M70.3407 108.613L86.7871 92.4102L113.101 118.334L96.6548 134.537L70.3407 108.613Z" fill="#AA6955"/>
<path d="M169.022 69.7208C170.839 67.931 170.839 65.0289 169.022 63.2396L142.707 37.3145C140.891 35.5247 137.945 35.5247 136.129 37.3145C134.312 39.1043 134.312 42.0064 136.129 43.7957L162.444 69.7208C164.26 71.5106 167.206 71.5106 169.022 69.7208Z" fill="#FFC36E"/>
<path d="M103.235 134.533C105.052 132.743 105.052 129.841 103.235 128.052L76.9201 102.127C75.1035 100.337 72.1577 100.337 70.3415 102.127C68.5248 103.917 68.5248 106.818 70.3415 108.608L96.6565 134.533C98.4732 136.323 101.418 136.323 103.235 134.533Z" fill="#FFC36E"/>
<path d="M13.9549 229.241H116.295V215.492C116.295 212.961 114.212 210.909 111.643 210.909H18.6066C16.0374 210.909 13.9549 212.961 13.9549 215.492V229.241Z" fill="#B9785F"/>
<path d="M4.65174 242.99H125.6V233.824C125.6 228.761 121.435 224.658 116.296 224.658H13.9551C8.8167 224.658 4.65121 228.761 4.65121 233.824V242.99H4.65174Z" fill="#AA6955"/>
<path d="M4.65239 247.573H125.6C128.169 247.573 130.252 245.521 130.252 242.99C130.252 240.459 128.169 238.407 125.6 238.407H4.65239C2.08317 238.407 0.000686169 240.459 0.000686169 242.99C0.000686169 245.521 2.0837 247.573 4.65239 247.573Z" fill="#FFC36E"/>
</svg>
