<svg width="120" height="22" viewBox="0 0 120 22" fill="none" xmlns="http://www.w3.org/2000/svg">
<path d="M0.96656 21V0.177598H3.51152V18.6864H13.9806V21H0.96656ZM25.7811 21V19.1202C24.4797 20.7976 22.7445 21.347 20.9803 21.347C17.5967 21.347 15.5434 19.7564 15.5434 16.9223C15.5434 14.2616 17.5967 12.8735 20.9514 12.2372L25.6654 11.3407V10.1839C25.6654 8.39088 24.4507 7.75464 22.3685 7.75464C20.5755 7.75464 18.6089 8.30412 18.4932 10.5888H16.0639C16.1796 6.94488 19.1873 5.61456 22.3685 5.61456C26.2438 5.61456 28.0368 7.29192 28.0368 9.95256V21H25.7811ZM18.0594 16.8644C18.0594 18.2526 18.9559 19.207 21.096 19.207C23.2939 19.207 25.6654 17.9634 25.6654 15.0425V13.394L21.2985 14.2906C19.3608 14.6954 18.0594 15.1582 18.0594 16.8644ZM44.6577 21L41.1294 9.20064L37.5723 21H35.0852L29.6482 5.9616H32.2799L36.2998 17.8766L39.857 5.9616H42.373L45.9302 17.8766L49.95 5.9616H52.5818L47.1448 21H44.6577ZM60.3881 21V0.177598H62.9331V18.6864H73.4021V21H60.3881ZM82.166 21.347C77.9148 21.347 75.1385 17.9923 75.1385 13.4808C75.1385 8.96928 77.9148 5.61456 82.166 5.61456C86.4173 5.61456 89.1936 8.96928 89.1936 13.4808V14.3484H77.7123C77.9726 17.1826 79.5054 19.1491 82.166 19.1491C84.1326 19.1491 85.6653 18.1369 86.3594 16.4306H88.8755C87.9211 19.4094 85.434 21.347 82.166 21.347ZM77.7702 12.1505H86.5619C86.1859 9.5766 84.6821 7.81248 82.166 7.81248C79.65 7.81248 78.1461 9.5766 77.7702 12.1505ZM102.165 11.3407C102.165 9.25848 101.066 7.81248 98.7523 7.81248C97.7112 7.81248 94.5011 8.30412 94.5011 12.5843V21H92.0718V5.9616H94.3854V8.1306C95.3976 6.71352 96.9882 5.61456 99.215 5.61456C103.032 5.61456 104.565 8.44872 104.565 11.1094V21H102.165V11.3407ZM113.463 21.347C109.848 21.347 107.245 19.7275 107.043 16.0836H109.501C109.732 18.3972 111.063 19.2359 113.463 19.2359C115.69 19.2359 117.02 18.4261 117.02 16.9801C117.02 15.6498 116.557 15.0714 113.232 14.5219C108.633 13.77 107.505 12.2662 107.505 9.89472C107.505 7.29192 109.819 5.61456 113.029 5.61456C116.818 5.61456 119.16 7.4076 119.189 10.5888H116.76C116.673 8.33304 115.082 7.72572 113.029 7.72572C111.323 7.72572 109.935 8.47764 109.935 9.8658C109.935 11.254 110.687 11.7456 113.839 12.2951C118.264 13.0759 119.478 14.3484 119.478 16.8355C119.478 19.7275 116.904 21.347 113.463 21.347Z" fill="black"/>
</svg>
