<svg width="520" height="561" viewBox="0 0 520 561" fill="none" xmlns="http://www.w3.org/2000/svg">
<path opacity="0.12" d="M188.664 560.472C292.153 560.472 376.047 550.151 376.047 537.419C376.047 524.687 292.153 514.366 188.664 514.366C85.1755 514.366 1.28125 524.687 1.28125 537.419C1.28125 550.151 85.1755 560.472 188.664 560.472Z" fill="black"/>
<path opacity="0.17" d="M402.653 8.56683L402.412 8.27783H380.191H84.6853L85.4073 9.05482H82.4923C64.0153 9.05482 49.0383 24.0328 49.0383 42.5098V380.72H20.9903L20.7502 381.009C6.95825 397.56 6.95825 421.601 20.7502 438.152L20.9903 438.441C20.9903 438.441 31.6403 438.441 49.0383 438.441H338.717H339.139C359.254 438.441 375.56 422.135 375.56 402.02V66.7748C375.56 66.7748 375.555 66.4978 375.552 65.9978H402.412L402.653 65.7088C416.445 49.1578 416.445 25.1168 402.653 8.56683Z" fill="black"/>
<path d="M74.2812 57.721H392.008L392.249 57.432C406.041 40.881 406.041 16.84 392.249 0.289001L392.008 0H369.787H74.2812L75.8522 1.69099C90.5952 17.557 90.0232 42.278 74.5612 57.445L74.2812 57.721Z" fill="#AFCAD8"/>
<path d="M328.733 430.163H38.6328V34.2328C38.6328 15.7558 53.6108 0.777822 72.0868 0.777822H355.9C355.9 0.777822 385.354 -0.971178 384.76 0.777822C364.095 1.18182 365.154 58.4978 365.154 58.4978V393.742C365.154 413.856 348.848 430.163 328.733 430.163Z" fill="#9CB3C1"/>
<path d="M328.312 430.163C315.372 430.163 10.585 430.163 10.585 430.163L10.344 429.874C-3.448 413.323 -3.448 389.282 10.344 372.731L10.585 372.442H328.312L326.741 374.133C311.998 390 309.494 417.069 328.312 430.163Z" fill="#AFCAD8"/>
<path d="M306.597 64.8062H109.215V81.4162H306.597V64.8062Z" fill="#F7D77F"/>
<path d="M334.065 347.042H245.812V352.454H334.065V347.042Z" fill="#004686"/>
<path d="M334.062 112.622H81.7461V119.369H334.062V112.622Z" fill="#E6E6E6"/>
<path d="M334.062 145.745H81.7461V152.492H334.062V145.745Z" fill="#E6E6E6"/>
<path d="M334.062 178.868H81.7461V185.615H334.062V178.868Z" fill="#E6E6E6"/>
<path d="M334.062 211.991H81.7461V218.738H334.062V211.991Z" fill="#E6E6E6"/>
<path d="M334.062 245.114H81.7461V251.861H334.062V245.114Z" fill="#E6E6E6"/>
<path d="M334.062 311.359H81.7461V318.106H334.062V311.359Z" fill="#E6E6E6"/>
<path d="M334.062 278.237H81.7461V284.984H334.062V278.237Z" fill="#E6E6E6"/>
<path opacity="0.28" d="M519.473 89.8722L516.567 88.0862L515.789 87.6082L514.389 86.7472L518.915 79.3832C519.199 78.9212 519.055 78.3172 518.593 78.0332L493.668 62.7152C493.206 62.4312 492.602 62.5762 492.319 63.0372L487.793 70.4012L486.125 69.3762C485.754 69.1482 485.268 69.2642 485.039 69.6352L483.098 72.7942C482.87 73.1652 482.986 73.6512 483.357 73.8802L485.025 74.9052L445.974 138.448C445.69 138.91 445.834 139.514 446.296 139.797L448.571 141.196L363.382 279.813L361.614 278.726C360.976 278.334 360.141 278.533 359.749 279.171L359.735 279.194C359.343 279.832 359.542 280.667 360.18 281.059L362.146 282.267L361.695 283.276L359.606 281.993C358.968 281.601 358.133 281.8 357.741 282.438L357.727 282.461C357.335 283.099 357.534 283.934 358.172 284.326L360.566 285.797L352.645 303.488L343.914 322.985L339.11 326.007L334.742 344.564L337.151 346.044L352.141 333.749L352.938 328.528L367.179 312.419L367.204 312.391L380.101 297.802L382.232 299.112C382.87 299.504 383.705 299.305 384.097 298.666L384.111 298.643C384.503 298.005 384.304 297.17 383.666 296.778L381.943 295.719L382.68 294.886L384.24 295.845C384.878 296.237 385.713 296.038 386.105 295.4L386.119 295.377C386.511 294.739 386.312 293.904 385.674 293.512L384.379 292.716L465.641 160.489L469.568 154.1L471.221 155.116C471.683 155.4 472.287 155.256 472.571 154.794L511.622 91.2512L512.35 91.6982C512.721 91.9262 512.837 92.4122 512.609 92.7832L486.946 134.541C486.718 134.912 486.834 135.399 487.205 135.627L490.216 137.477C490.588 137.705 491.073 137.589 491.302 137.218L519.732 90.9572C519.96 90.5862 519.844 90.1002 519.473 89.8722Z" fill="black"/>
<path d="M360.257 308.702L345.625 299.931L355.606 276.965L450.611 118.479L471.748 131.15L376.813 289.519L360.257 308.702Z" fill="#153E49"/>
<path d="M462.553 150.258L437.461 135.216C436.996 134.937 436.845 134.335 437.124 133.87L482.633 57.9531C482.912 57.4881 483.514 57.3371 483.979 57.6161L509.072 72.6581C509.537 72.9371 509.688 73.5391 509.409 74.0041L463.9 149.921C463.62 150.386 463.017 150.537 462.553 150.258Z" fill="#113542"/>
<path d="M507.159 82.732L506.376 82.263L476.512 64.361C476.138 64.137 475.654 64.258 475.429 64.632L473.523 67.812C473.299 68.186 473.42 68.671 473.794 68.895L502.982 86.392C503.356 86.616 503.477 87.101 503.253 87.475L478.053 129.513C477.829 129.887 477.95 130.371 478.324 130.596L481.356 132.413C481.73 132.637 482.215 132.516 482.439 132.142L510.357 85.57C510.581 85.196 510.46 84.711 510.086 84.487L507.159 82.732Z" fill="#1A1A1A"/>
<path d="M346.193 324.967L337.109 319.523L355.606 276.96L376.743 289.631L346.193 324.967Z" fill="#5D7A7F"/>
<path d="M346.194 324.967L337.11 319.523L332.339 322.597L328.176 341.201L330.601 342.655L345.455 330.196L346.194 324.967Z" fill="#DAE7E8"/>
<path d="M377.134 291.94L352.913 277.42C352.271 277.035 352.062 276.202 352.447 275.56L352.461 275.537C352.846 274.895 353.679 274.686 354.321 275.071L378.542 289.591C379.184 289.976 379.393 290.809 379.008 291.451L378.994 291.475C378.609 292.116 377.776 292.325 377.134 291.94Z" fill="#688689"/>
<path d="M375.161 295.229L350.94 280.709C350.298 280.324 350.089 279.491 350.474 278.849L350.488 278.826C350.873 278.184 351.706 277.975 352.348 278.36L376.569 292.88C377.211 293.265 377.42 294.098 377.035 294.74L377.021 294.763C376.636 295.405 375.803 295.614 375.161 295.229Z" fill="#688689"/>
<path d="M338.068 331.645C337.504 332.587 336.283 332.892 335.341 332.328C334.399 331.763 334.094 330.543 334.658 329.601C335.222 328.659 336.443 328.354 337.385 328.918C338.327 329.483 338.633 330.704 338.068 331.645Z" fill="#153E49"/>
<path d="M335.486 331.2L329.148 341.772L329.971 342.265L336.309 331.693L335.486 331.2Z" fill="#153E49"/>
<path opacity="0.28" d="M439.754 136.59L460.891 149.26L449.203 168.758L439.754 136.59Z" fill="black"/>
<path d="M137.07 64.8062H109.215V81.4162H137.07V64.8062Z" fill="#8CAD81"/>
</svg>
