<svg width="619" height="153" viewBox="0 0 619 153" fill="none" xmlns="http://www.w3.org/2000/svg">
<path d="M15.232 47V9.944H0.896V0.919998H39.68V9.944H25.408V47H15.232ZM53.1065 33.112C53.1065 36.76 54.5785 39.704 58.9305 39.704C62.1305 39.704 65.7785 37.464 65.7785 31.832H65.8425V13.72H75.1865V47H66.0985V42.392C63.7945 45.464 60.3385 47.768 55.6025 47.768C48.3065 47.768 43.7625 43.032 43.7625 34.2V13.72H53.1065V33.112ZM81.575 47V13.72H90.663V19.864C92.711 15.256 96.103 13.336 100.455 13.336H103.143V21.912H100.007C94.375 21.912 90.919 24.28 90.919 31.768V47H81.575ZM130.03 27.608C130.03 23.96 128.558 21.016 124.206 21.016C121.006 21.016 117.358 23.256 117.358 28.888H117.294V47H107.95V13.72H117.038V18.328C119.342 15.256 122.798 12.952 127.534 12.952C134.83 12.952 139.374 17.688 139.374 26.52V47H130.03V27.608ZM175.489 47V29.144L157.697 0.919998H169.281L180.545 19.864L191.809 0.919998H203.009L185.601 29.016V47H175.489ZM222.383 47.768C211.311 47.768 205.167 40.28 205.167 30.36C205.167 20.44 211.311 12.952 222.383 12.952C233.455 12.952 239.599 20.44 239.599 30.36C239.599 40.28 233.455 47.768 222.383 47.768ZM214.639 30.36C214.639 36.248 216.943 40.152 222.383 40.152C227.823 40.152 230.127 36.248 230.127 30.36C230.127 24.472 227.823 20.568 222.383 20.568C216.943 20.568 214.639 24.472 214.639 30.36ZM253.919 33.112C253.919 36.76 255.391 39.704 259.743 39.704C262.943 39.704 266.591 37.464 266.591 31.832H266.655V13.72H275.999V47H266.911V42.392C264.607 45.464 261.151 47.768 256.415 47.768C249.119 47.768 244.575 43.032 244.575 34.2V13.72H253.919V33.112ZM282.388 47V13.72H291.476V19.864C293.524 15.256 296.916 13.336 301.268 13.336H303.956V21.912H300.82C295.188 21.912 291.732 24.28 291.732 31.768V47H282.388ZM341.753 47.768C329.529 47.768 321.913 41.816 321.849 31.576H331.705C331.833 38.168 336.697 39.704 342.137 39.704C347.129 39.704 350.521 37.72 350.521 34.072C350.521 31.256 348.985 29.528 339.705 27.928C327.993 25.944 322.873 21.72 322.873 13.4C322.873 5.72 329.657 0.151997 340.601 0.151997C352.825 0.151997 359.289 6.04 359.673 15.704H349.945C349.689 10.584 346.745 8.216 340.601 8.216C336.121 8.216 333.177 10.072 333.177 13.08C333.177 15.96 334.713 17.816 343.289 19.288C356.921 21.592 360.953 25.944 360.953 33.496C360.953 42.904 352.761 47.768 341.753 47.768ZM368.967 3.48H378.375V13.72H386.567V20.696H378.375V37.08C378.375 39.064 379.079 40.024 381.447 40.024H386.567V47H378.887C373.383 47 368.967 45.528 368.967 38.04V20.696H363.271V13.72H368.967V3.48ZM407.133 47.768C396.061 47.768 389.917 40.28 389.917 30.36C389.917 20.44 396.061 12.952 407.133 12.952C418.205 12.952 424.349 20.44 424.349 30.36C424.349 40.28 418.205 47.768 407.133 47.768ZM399.389 30.36C399.389 36.248 401.693 40.152 407.133 40.152C412.573 40.152 414.877 36.248 414.877 30.36C414.877 24.472 412.573 20.568 407.133 20.568C401.693 20.568 399.389 24.472 399.389 30.36ZM429.325 47V13.72H438.413V19.864C440.461 15.256 443.853 13.336 448.205 13.336H450.893V21.912H447.757C442.125 21.912 438.669 24.28 438.669 31.768V47H429.325ZM454.42 59.8V52.312H459.924C463.316 52.312 464.02 51.416 465.108 48.28L465.364 47.576L452.756 13.72H462.868L470.42 38.488L477.78 13.72H487.828L474.644 49.88C472.532 55.768 469.652 59.8 462.548 59.8H454.42ZM506.011 47V13.72H515.419V47H506.011ZM506.011 8.92V0.919998H515.355V8.92H506.011ZM543.843 27.608C543.843 23.96 542.371 21.016 538.019 21.016C534.819 21.016 531.171 23.256 531.171 28.888H531.107V47H521.763V13.72H530.851V18.328C533.155 15.256 536.611 12.952 541.347 12.952C548.643 12.952 553.187 17.688 553.187 26.52V47H543.843V27.608ZM562.967 3.48H572.375V13.72H580.567V20.696H572.375V37.08C572.375 39.064 573.079 40.024 575.447 40.024H580.567V47H572.887C567.383 47 562.967 45.528 562.967 38.04V20.696H557.271V13.72H562.967V3.48ZM601.133 47.768C590.061 47.768 583.917 40.28 583.917 30.36C583.917 20.44 590.061 12.952 601.133 12.952C612.205 12.952 618.349 20.44 618.349 30.36C618.349 40.28 612.205 47.768 601.133 47.768ZM593.389 30.36C593.389 36.248 595.693 40.152 601.133 40.152C606.573 40.152 608.877 36.248 608.877 30.36C608.877 24.472 606.573 20.568 601.133 20.568C595.693 20.568 593.389 24.472 593.389 30.36ZM21.44 139.768C9.216 139.768 1.6 133.816 1.536 123.576H11.392C11.52 130.168 16.384 131.704 21.824 131.704C26.816 131.704 30.208 129.72 30.208 126.072C30.208 123.256 28.672 121.528 19.392 119.928C7.68 117.944 2.56 113.72 2.56 105.4C2.56 97.72 9.344 92.152 20.288 92.152C32.512 92.152 38.976 98.04 39.36 107.704H29.632C29.376 102.584 26.432 100.216 20.288 100.216C15.808 100.216 12.864 102.072 12.864 105.08C12.864 107.96 14.4 109.816 22.976 111.288C36.608 113.592 40.64 117.944 40.64 125.496C40.64 134.904 32.448 139.768 21.44 139.768ZM48.6545 95.48H58.0625V105.72H66.2545V112.696H58.0625V129.08C58.0625 131.064 58.7665 132.024 61.1345 132.024H66.2545V139H58.5745C53.0705 139 48.6545 137.528 48.6545 130.04V112.696H42.9585V105.72H48.6545V95.48ZM71.0125 139V105.72H80.1005V111.864C82.1485 107.256 85.5405 105.336 89.8925 105.336H92.5805V113.912H89.4445C83.8125 113.912 80.3565 116.28 80.3565 123.768V139H71.0125ZM112.876 139.768C102.124 139.768 95.9795 132.28 95.9795 122.36C95.9795 112.44 102.124 104.952 112.876 104.952C123.628 104.952 129.772 112.056 129.772 123.32V125.24H105.132C105.9 129.848 108.588 132.664 112.876 132.664C116.588 132.664 118.892 131.256 120.172 128.76H129.196C127.083 135.352 121.26 139.768 112.876 139.768ZM105.26 118.968H120.556C119.66 114.68 116.972 112.056 112.876 112.056C108.78 112.056 106.092 114.68 105.26 118.968ZM156.905 119.608C156.905 115.96 155.433 113.016 151.081 113.016C147.881 113.016 144.233 115.256 144.233 120.888H144.169V139H134.825V105.72H143.913V110.328C146.217 107.256 149.673 104.952 154.409 104.952C161.705 104.952 166.249 109.688 166.249 118.52V139H156.905V119.608ZM187.87 152.568C178.142 152.568 172.83 147.96 172.446 140.664H181.662C182.046 144.056 184.606 145.4 188.253 145.4C191.838 145.4 195.806 144.12 195.806 138.168V134.008C193.63 136.824 190.366 138.488 185.885 138.488C176.35 138.488 171.23 131.32 171.23 121.72C171.23 112.184 176.35 104.952 185.885 104.952C190.558 104.952 193.886 106.744 196.062 109.752V105.72H205.15V138.168C205.15 147.96 197.534 152.568 187.87 152.568ZM180.766 121.72C180.766 127.416 183.07 131.192 188.318 131.192C193.63 131.192 195.934 127.416 195.934 121.72C195.934 116.024 193.63 112.312 188.318 112.312C183.07 112.312 180.766 116.024 180.766 121.72ZM214.967 95.48H224.375V105.72H232.567V112.696H224.375V129.08C224.375 131.064 225.079 132.024 227.447 132.024H232.567V139H224.887C219.383 139 214.967 137.528 214.967 130.04V112.696H209.271V105.72H214.967V95.48ZM237.325 139V92.92H246.669V109.944C248.973 107.064 252.365 104.952 256.909 104.952C264.205 104.952 268.749 109.688 268.749 118.52V139H259.405V119.608C259.405 115.96 257.933 113.016 253.581 113.016C250.381 113.016 246.733 115.256 246.733 120.888H246.669V139H237.325Z" fill="black"/>
</svg>
