<svg width="500" height="153" viewBox="0 0 500 153" fill="none" xmlns="http://www.w3.org/2000/svg">
<path d="M26.982 47V9.944H12.646V0.919998H51.43V9.944H37.158V47H26.982ZM64.8565 33.112C64.8565 36.76 66.3285 39.704 70.6805 39.704C73.8805 39.704 77.5285 37.464 77.5285 31.832H77.5925V13.72H86.9365V47H77.8485V42.392C75.5445 45.464 72.0885 47.768 67.3525 47.768C60.0565 47.768 55.5125 43.032 55.5125 34.2V13.72H64.8565V33.112ZM93.325 47V13.72H102.413V19.864C104.461 15.256 107.853 13.336 112.205 13.336H114.893V21.912H111.757C106.125 21.912 102.669 24.28 102.669 31.768V47H93.325ZM141.78 27.608C141.78 23.96 140.308 21.016 135.956 21.016C132.756 21.016 129.108 23.256 129.108 28.888H129.044V47H119.7V13.72H128.788V18.328C131.092 15.256 134.548 12.952 139.284 12.952C146.58 12.952 151.124 17.688 151.124 26.52V47H141.78V27.608ZM187.239 47V29.144L169.447 0.919998H181.031L192.295 19.864L203.559 0.919998H214.759L197.351 29.016V47H187.239ZM234.133 47.768C223.061 47.768 216.917 40.28 216.917 30.36C216.917 20.44 223.061 12.952 234.133 12.952C245.205 12.952 251.349 20.44 251.349 30.36C251.349 40.28 245.205 47.768 234.133 47.768ZM226.389 30.36C226.389 36.248 228.693 40.152 234.133 40.152C239.573 40.152 241.877 36.248 241.877 30.36C241.877 24.472 239.573 20.568 234.133 20.568C228.693 20.568 226.389 24.472 226.389 30.36ZM265.669 33.112C265.669 36.76 267.141 39.704 271.493 39.704C274.693 39.704 278.341 37.464 278.341 31.832H278.405V13.72H287.749V47H278.661V42.392C276.357 45.464 272.901 47.768 268.165 47.768C260.869 47.768 256.325 43.032 256.325 34.2V13.72H265.669V33.112ZM294.138 47V13.72H303.226V19.864C305.274 15.256 308.666 13.336 313.018 13.336H315.706V21.912H312.57C306.938 21.912 303.482 24.28 303.482 31.768V47H294.138ZM353.503 47.768C341.279 47.768 333.663 41.816 333.599 31.576H343.455C343.583 38.168 348.447 39.704 353.887 39.704C358.879 39.704 362.271 37.72 362.271 34.072C362.271 31.256 360.735 29.528 351.455 27.928C339.743 25.944 334.623 21.72 334.623 13.4C334.623 5.72 341.407 0.151997 352.351 0.151997C364.575 0.151997 371.039 6.04 371.423 15.704H361.695C361.439 10.584 358.495 8.216 352.351 8.216C347.871 8.216 344.927 10.072 344.927 13.08C344.927 15.96 346.463 17.816 355.039 19.288C368.671 21.592 372.703 25.944 372.703 33.496C372.703 42.904 364.511 47.768 353.503 47.768ZM380.717 3.48H390.125V13.72H398.317V20.696H390.125V37.08C390.125 39.064 390.829 40.024 393.197 40.024H398.317V47H390.637C385.133 47 380.717 45.528 380.717 38.04V20.696H375.021V13.72H380.717V3.48ZM418.883 47.768C407.811 47.768 401.667 40.28 401.667 30.36C401.667 20.44 407.811 12.952 418.883 12.952C429.955 12.952 436.099 20.44 436.099 30.36C436.099 40.28 429.955 47.768 418.883 47.768ZM411.139 30.36C411.139 36.248 413.443 40.152 418.883 40.152C424.323 40.152 426.627 36.248 426.627 30.36C426.627 24.472 424.323 20.568 418.883 20.568C413.443 20.568 411.139 24.472 411.139 30.36ZM441.075 47V13.72H450.163V19.864C452.211 15.256 455.603 13.336 459.955 13.336H462.643V21.912H459.507C453.875 21.912 450.419 24.28 450.419 31.768V47H441.075ZM466.17 59.8V52.312H471.674C475.066 52.312 475.77 51.416 476.858 48.28L477.114 47.576L464.506 13.72H474.618L482.17 38.488L489.53 13.72H499.578L486.394 49.88C484.282 55.768 481.402 59.8 474.298 59.8H466.17ZM0.136 139V105.72H9.544V139H0.136ZM0.136 100.92V92.92H9.48V100.92H0.136ZM37.9675 119.608C37.9675 115.96 36.4955 113.016 32.1435 113.016C28.9435 113.016 25.2955 115.256 25.2955 120.888H25.2315V139H15.8875V105.72H24.9755V110.328C27.2795 107.256 30.7355 104.952 35.4715 104.952C42.7675 104.952 47.3115 109.688 47.3115 118.52V139H37.9675V119.608ZM57.092 95.48H66.5V105.72H74.692V112.696H66.5V129.08C66.5 131.064 67.204 132.024 69.572 132.024H74.692V139H67.012C61.508 139 57.092 137.528 57.092 130.04V112.696H51.396V105.72H57.092V95.48ZM95.258 139.768C84.186 139.768 78.042 132.28 78.042 122.36C78.042 112.44 84.186 104.952 95.258 104.952C106.33 104.952 112.474 112.44 112.474 122.36C112.474 132.28 106.33 139.768 95.258 139.768ZM87.514 122.36C87.514 128.248 89.818 132.152 95.258 132.152C100.698 132.152 103.002 128.248 103.002 122.36C103.002 116.472 100.698 112.568 95.258 112.568C89.818 112.568 87.514 116.472 87.514 122.36ZM150.44 139.768C138.216 139.768 130.6 133.816 130.536 123.576H140.392C140.52 130.168 145.384 131.704 150.824 131.704C155.816 131.704 159.208 129.72 159.208 126.072C159.208 123.256 157.672 121.528 148.392 119.928C136.68 117.944 131.56 113.72 131.56 105.4C131.56 97.72 138.344 92.152 149.288 92.152C161.512 92.152 167.976 98.04 168.36 107.704H158.632C158.376 102.584 155.432 100.216 149.288 100.216C144.808 100.216 141.864 102.072 141.864 105.08C141.864 107.96 143.4 109.816 151.976 111.288C165.608 113.592 169.64 117.944 169.64 125.496C169.64 134.904 161.448 139.768 150.44 139.768ZM177.655 95.48H187.062V105.72H195.255V112.696H187.062V129.08C187.062 131.064 187.767 132.024 190.135 132.024H195.255V139H187.575C182.071 139 177.655 137.528 177.655 130.04V112.696H171.959V105.72H177.655V95.48ZM200.013 139V105.72H209.101V111.864C211.149 107.256 214.541 105.336 218.893 105.336H221.581V113.912H218.445C212.812 113.912 209.357 116.28 209.357 123.768V139H200.013ZM241.876 139.768C231.124 139.768 224.98 132.28 224.98 122.36C224.98 112.44 231.124 104.952 241.876 104.952C252.628 104.952 258.772 112.056 258.772 123.32V125.24H234.132C234.9 129.848 237.588 132.664 241.876 132.664C245.588 132.664 247.892 131.256 249.172 128.76H258.196C256.083 135.352 250.26 139.768 241.876 139.768ZM234.26 118.968H249.556C248.66 114.68 245.972 112.056 241.876 112.056C237.78 112.056 235.092 114.68 234.26 118.968ZM285.905 119.608C285.905 115.96 284.433 113.016 280.081 113.016C276.881 113.016 273.233 115.256 273.233 120.888H273.169V139H263.825V105.72H272.913V110.328C275.217 107.256 278.673 104.952 283.409 104.952C290.705 104.952 295.249 109.688 295.249 118.52V139H285.905V119.608ZM316.87 152.568C307.142 152.568 301.83 147.96 301.446 140.664H310.662C311.046 144.056 313.606 145.4 317.253 145.4C320.838 145.4 324.806 144.12 324.806 138.168V134.008C322.63 136.824 319.366 138.488 314.885 138.488C305.35 138.488 300.23 131.32 300.23 121.72C300.23 112.184 305.35 104.952 314.885 104.952C319.558 104.952 322.886 106.744 325.062 109.752V105.72H334.15V138.168C334.15 147.96 326.534 152.568 316.87 152.568ZM309.766 121.72C309.766 127.416 312.07 131.192 317.318 131.192C322.63 131.192 324.934 127.416 324.934 121.72C324.934 116.024 322.63 112.312 317.318 112.312C312.07 112.312 309.766 116.024 309.766 121.72ZM343.967 95.48H353.375V105.72H361.567V112.696H353.375V129.08C353.375 131.064 354.079 132.024 356.447 132.024H361.567V139H353.887C348.383 139 343.967 137.528 343.967 130.04V112.696H338.271V105.72H343.967V95.48ZM366.325 139V92.92H375.669V109.944C377.973 107.064 381.365 104.952 385.909 104.952C393.205 104.952 397.749 109.688 397.749 118.52V139H388.405V119.608C388.405 115.96 386.933 113.016 382.581 113.016C379.381 113.016 375.733 115.256 375.733 120.888H375.669V139H366.325Z" fill="black"/>
</svg>
