<svg width="449" height="145" viewBox="0 0 449 145" fill="none" xmlns="http://www.w3.org/2000/svg">
<path d="M11.808 44.472V10.552L13.792 8.632H9.76C7.15733 8.632 5.68533 9.336 5.344 10.744H3.936L0.288 5.496C0.8 4.68533 1.46133 3.96 2.272 3.32C3.08267 2.68 3.872 2.36 4.64 2.36H21.536C24.1387 2.36 25.6107 1.656 25.952 0.247997H27.36L31.008 5.496C30.496 6.30666 29.8347 7.032 29.024 7.672C28.2133 8.312 27.424 8.632 26.656 8.632H19.488V41.144C19.488 42.7227 19.6587 43.8533 20 44.536C20.3413 45.2187 21.0453 45.56 22.112 45.56V47.544L8.992 53.048L7.968 51C8.90667 51 9.80267 50.4453 10.656 49.336C11.424 48.2693 11.808 46.648 11.808 44.472ZM38.255 41.016C38.255 42.1253 38.575 43.0427 39.215 43.768C39.8977 44.4507 40.6443 44.792 41.455 44.792C42.2657 44.792 43.119 44.472 44.015 43.832V23.928C44.015 21.3253 43.1403 19.8533 41.391 19.512V18.104L47.855 14.456C48.7937 14.84 49.6683 15.48 50.479 16.376C51.2897 17.2293 51.695 18.04 51.695 18.808V40.504C51.695 41.912 51.9937 43.128 52.591 44.152C53.1883 45.176 53.935 45.688 54.831 45.688V47.096C54.5323 47.1387 52.207 48.44 47.855 51C46.8737 50.5733 45.9777 49.9547 45.167 49.144C44.399 48.2907 44.015 47.48 44.015 46.712L36.015 51C35.887 50.9147 35.695 50.808 35.439 50.68C35.183 50.5093 34.735 50.1893 34.095 49.72C33.4977 49.208 32.9643 48.6747 32.495 48.12C31.215 46.712 30.575 45.112 30.575 43.32V23.928C30.575 21.5813 29.5297 20.1947 27.439 19.768V18.36L34.415 14.456C35.3537 14.84 36.2283 15.48 37.039 16.376C37.8497 17.2293 38.255 18.04 38.255 18.808V41.016ZM54.939 18.36L61.979 14.52C62.2777 14.6053 62.619 14.7333 63.003 14.904C63.4297 15.032 63.9843 15.4373 64.667 16.12C65.3923 16.8027 65.755 17.5707 65.755 18.424C65.9683 18.3387 66.971 17.6773 68.763 16.44C70.5977 15.16 71.771 14.52 72.283 14.52C73.6483 14.52 74.9283 15.416 76.123 17.208C77.3177 19 77.915 20.6427 77.915 22.136V25.272L71.323 28.984L70.235 28.088C70.235 24.504 69.8937 22.456 69.211 21.944C68.443 21.3893 67.291 21.112 65.755 21.112V41.528C65.755 44.1307 66.6297 45.6027 68.379 45.944V47.352L61.915 51C60.9763 50.616 60.1017 49.9973 59.291 49.144C58.4803 48.248 58.075 47.416 58.075 46.648V25.4C58.075 23.5227 57.7337 22.1147 57.051 21.176C56.411 20.2373 55.707 19.768 54.939 19.768V18.36ZM82.3875 46.648V24.952C82.3875 23.544 82.0888 22.328 81.4915 21.304C80.8942 20.28 80.1475 19.768 79.2515 19.768V18.36C79.5502 18.3173 81.8755 17.016 86.2275 14.456C86.5262 14.5413 86.8888 14.6693 87.3155 14.84C87.7422 14.968 88.2968 15.3733 88.9795 16.056C89.7048 16.7387 90.0675 17.528 90.0675 18.424C90.3235 18.296 91.0488 17.8907 92.2435 17.208C95.4008 15.416 97.2782 14.52 97.8755 14.52C99.2408 14.52 100.521 15.416 101.716 17.208C102.91 19 103.508 20.6427 103.508 22.136V41.528C103.508 43.8747 104.553 45.2613 106.644 45.688V47.096L99.6675 51C98.7288 50.616 97.8542 49.9973 97.0435 49.144C96.2328 48.248 95.8275 47.416 95.8275 46.648V28.088C95.8275 25.6987 95.5502 23.8853 94.9955 22.648C94.4835 21.368 93.5448 20.728 92.1795 20.728L90.0675 21.112V41.528C90.0675 44.1307 90.9422 45.6027 92.6915 45.944V47.352L86.2275 51C85.2888 50.616 84.4142 49.9973 83.6035 49.144C82.7928 48.248 82.3875 47.416 82.3875 46.648ZM116.443 6.968V5.624L123.099 1.72H125.595L132.955 24.824L133.979 24.376V11C133.979 9.76266 133.766 8.80266 133.339 8.12C132.912 7.39466 132.486 6.968 132.059 6.84L131.355 6.712V5.304L137.499 1.656C137.84 1.656 138.566 2.14666 139.675 3.128C140.784 4.06667 141.339 4.96267 141.339 5.816V24.12C141.339 24.8453 138.95 26.0613 134.171 27.768V39.8C134.171 41.208 134.32 42.1893 134.619 42.744C134.96 43.256 135.664 43.512 136.731 43.512V45.304L123.675 51L122.651 48.952C124.486 48.5253 125.616 47.5013 126.043 45.88C126.342 44.728 126.491 43.3413 126.491 41.72V28.216L120.091 9.016C119.878 8.376 119.558 7.90667 119.131 7.608C118.704 7.26666 118.32 7.07466 117.979 7.032C117.638 6.98933 117.126 6.968 116.443 6.968ZM147.45 41.656V20.408C147.45 20.1093 149.882 19.064 154.746 17.272C159.61 15.4373 162.405 14.52 163.13 14.52C163.855 14.52 164.943 15.3947 166.394 17.144C167.887 18.8933 168.634 20.472 168.634 21.88V45.048C168.634 45.3893 166.287 46.4773 161.594 48.312C156.943 50.104 154.085 51 153.018 51C151.994 51 150.799 50.0827 149.434 48.248C148.111 46.4133 147.45 44.216 147.45 41.656ZM158.394 45.112C159.205 45.112 160.037 44.7707 160.89 44.088V25.208C160.89 22.0507 159.802 20.472 157.626 20.472C156.773 20.472 155.941 20.792 155.13 21.432V40.376C155.13 43.5333 156.218 45.112 158.394 45.112ZM182.693 41.016C182.693 42.1253 183.013 43.0427 183.653 43.768C184.335 44.4507 185.082 44.792 185.893 44.792C186.703 44.792 187.557 44.472 188.453 43.832V23.928C188.453 21.3253 187.578 19.8533 185.829 19.512V18.104L192.293 14.456C193.231 14.84 194.106 15.48 194.917 16.376C195.727 17.2293 196.133 18.04 196.133 18.808V40.504C196.133 41.912 196.431 43.128 197.029 44.152C197.626 45.176 198.373 45.688 199.269 45.688V47.096C198.97 47.1387 196.645 48.44 192.293 51C191.311 50.5733 190.415 49.9547 189.605 49.144C188.837 48.2907 188.453 47.48 188.453 46.712L180.453 51C180.325 50.9147 180.133 50.808 179.877 50.68C179.621 50.5093 179.173 50.1893 178.533 49.72C177.935 49.208 177.402 48.6747 176.933 48.12C175.653 46.712 175.013 45.112 175.013 43.32V23.928C175.013 21.5813 173.967 20.1947 171.877 19.768V18.36L178.853 14.456C179.791 14.84 180.666 15.48 181.477 16.376C182.287 17.2293 182.693 18.04 182.693 18.808V41.016ZM199.377 18.36L206.417 14.52C206.715 14.6053 207.057 14.7333 207.441 14.904C207.867 15.032 208.422 15.4373 209.105 16.12C209.83 16.8027 210.193 17.5707 210.193 18.424C210.406 18.3387 211.409 17.6773 213.201 16.44C215.035 15.16 216.209 14.52 216.721 14.52C218.086 14.52 219.366 15.416 220.561 17.208C221.755 19 222.353 20.6427 222.353 22.136V25.272L215.76 28.984L214.673 28.088C214.673 24.504 214.331 22.456 213.649 21.944C212.881 21.3893 211.729 21.112 210.193 21.112V41.528C210.193 44.1307 211.067 45.6027 212.817 45.944V47.352L206.353 51C205.414 50.616 204.539 49.9973 203.729 49.144C202.918 48.248 202.513 47.416 202.513 46.648V25.4C202.513 23.5227 202.171 22.1147 201.489 21.176C200.849 20.2373 200.145 19.768 199.377 19.768V18.36ZM242.917 30.584C241.85 30.584 240.933 29.7733 240.165 28.152C239.397 26.5307 239.013 24.5467 239.013 22.2V8.888C239.013 8.07733 241.253 6.69066 245.733 4.728C250.213 2.72266 252.794 1.72 253.477 1.72C253.989 1.72 254.714 2.57333 255.653 4.28C255.866 4.70667 256.165 5.28267 256.549 6.008C256.975 6.73333 257.317 7.33066 257.573 7.8C258.127 8.824 258.831 9.336 259.685 9.336V10.616C259.002 10.9147 258.085 11.3627 256.933 11.96C254.245 13.4533 252.794 14.2 252.581 14.2C251.941 14.2 251.13 12.9413 250.149 10.424C249.21 7.90667 248.442 6.648 247.845 6.648C247.077 6.648 246.693 7.288 246.693 8.568V22.84C246.693 24.5467 247.077 25.4 247.845 25.4C248.015 25.4 249.338 24.8453 251.812 23.736C254.287 22.6267 255.781 22.072 256.293 22.072C257.317 22.072 258.213 22.904 258.981 24.568C259.791 26.1893 260.197 28.28 260.197 30.84V44.472C260.197 45.2827 257.743 46.6907 252.837 48.696C247.973 50.6587 245.178 51.64 244.453 51.64C244.154 51.64 243.813 51.2773 243.429 50.552C243.045 49.8267 242.533 48.8027 241.893 47.48C241.295 46.1147 240.741 44.984 240.229 44.088C239.759 43.192 239.098 42.744 238.245 42.744V41.464C238.927 41.1653 239.823 40.7173 240.933 40.12C243.663 38.6267 245.135 37.88 245.349 37.88C245.989 37.88 246.885 39.352 248.037 42.296C249.231 45.24 250.127 46.712 250.725 46.712C251.151 46.712 251.557 46.5413 251.941 46.2C252.325 45.8587 252.517 45.3893 252.517 44.792V30.392C252.517 28.472 251.983 27.512 250.917 27.512C250.575 27.512 249.231 28.024 246.885 29.048C244.538 30.072 243.215 30.584 242.917 30.584ZM273.88 7.864V15.48H277.144L276.504 18.616H273.88V41.528C273.88 44.1307 274.755 45.6027 276.504 45.944V47.352L270.04 51C269.101 50.616 268.227 49.9973 267.416 49.144C266.605 48.248 266.2 47.416 266.2 46.648V18.68H263.576L264.216 15.992C265.496 15.992 267.032 15.1387 268.824 13.432C270.659 11.6827 271.747 9.82667 272.088 7.864H273.88ZM280.263 41.656V20.408C280.263 20.1093 282.695 19.064 287.559 17.272C292.423 15.4373 295.217 14.52 295.943 14.52C296.668 14.52 297.756 15.3947 299.207 17.144C300.7 18.8933 301.447 20.472 301.447 21.88V45.048C301.447 45.3893 299.1 46.4773 294.407 48.312C289.756 50.104 286.897 51 285.831 51C284.807 51 283.612 50.0827 282.247 48.248C280.924 46.4133 280.263 44.216 280.263 41.656ZM291.207 45.112C292.017 45.112 292.849 44.7707 293.703 44.088V25.208C293.703 22.0507 292.615 20.472 290.439 20.472C289.585 20.472 288.753 20.792 287.943 21.432V40.376C287.943 43.5333 289.031 45.112 291.207 45.112ZM304.689 18.36L311.729 14.52C312.028 14.6053 312.369 14.7333 312.753 14.904C313.18 15.032 313.734 15.4373 314.417 16.12C315.142 16.8027 315.505 17.5707 315.505 18.424C315.718 18.3387 316.721 17.6773 318.513 16.44C320.348 15.16 321.521 14.52 322.033 14.52C323.398 14.52 324.678 15.416 325.873 17.208C327.068 19 327.665 20.6427 327.665 22.136V25.272L321.073 28.984L319.985 28.088C319.985 24.504 319.644 22.456 318.961 21.944C318.193 21.3893 317.041 21.112 315.505 21.112V41.528C315.505 44.1307 316.38 45.6027 318.129 45.944V47.352L311.665 51C310.726 50.616 309.852 49.9973 309.041 49.144C308.23 48.248 307.825 47.416 307.825 46.648V25.4C307.825 23.5227 307.484 22.1147 306.801 21.176C306.161 20.2373 305.457 19.768 304.689 19.768V18.36ZM353.322 18.808V44.216C353.322 45.8373 352.596 48.1413 351.146 51.128C349.695 54.1573 348.159 56.8027 346.538 59.064C344.916 61.368 343.807 62.52 343.21 62.52C342.143 62.52 340.714 62.2 338.922 61.56C337.13 60.92 335.594 60.28 334.314 59.64L332.458 58.68V56.76H334.634C336.298 56.76 338.196 55.8 340.33 53.88C342.463 52.0027 344.234 49.4853 345.642 46.328C340.82 48.5893 338.047 49.72 337.322 49.72C335.999 49.72 334.804 48.888 333.738 47.224C332.714 45.5173 332.202 43.6187 332.202 41.528V23.928C332.202 21.5813 331.156 20.1947 329.066 19.768V18.36L336.042 14.456C336.98 14.84 337.855 15.48 338.666 16.376C339.476 17.2293 339.882 18.04 339.882 18.808V36.152C339.882 39.1387 340.351 41.144 341.29 42.168C342.228 43.1493 343.679 43.64 345.642 43.64V23.928C345.642 21.3253 344.767 19.8533 343.018 19.512V18.104L349.482 14.456C350.42 14.84 351.295 15.48 352.106 16.376C352.916 17.2293 353.322 18.04 353.322 18.808ZM379.568 18.872V41.528C379.568 44.1307 380.442 45.6027 382.192 45.944V47.352L375.728 51C374.789 50.616 373.914 49.9973 373.104 49.144C372.293 48.248 371.888 47.416 371.888 46.648V23.992C371.888 21.3893 371.013 19.9173 369.264 19.576V18.168L375.728 14.52C376.666 14.904 377.541 15.544 378.352 16.44C379.162 17.2933 379.568 18.104 379.568 18.872ZM370.928 6.52V2.616C370.928 2.488 371.802 2.104 373.552 1.464C375.344 0.781331 376.368 0.439999 376.624 0.439999C376.922 0.439999 377.328 0.802664 377.84 1.528C378.394 2.25333 378.672 3 378.672 3.768V8.44C378.672 8.568 377.818 8.97333 376.112 9.656C374.405 10.296 373.36 10.616 372.976 10.616C372.592 10.616 372.144 10.2533 371.632 9.528C371.162 8.76 370.928 7.75733 370.928 6.52ZM385.95 46.648V24.952C385.95 23.544 385.651 22.328 385.054 21.304C384.457 20.28 383.71 19.768 382.814 19.768V18.36C383.113 18.3173 385.438 17.016 389.79 14.456C390.089 14.5413 390.451 14.6693 390.878 14.84C391.305 14.968 391.859 15.3733 392.542 16.056C393.267 16.7387 393.63 17.528 393.63 18.424C393.886 18.296 394.611 17.8907 395.806 17.208C398.963 15.416 400.841 14.52 401.438 14.52C402.803 14.52 404.083 15.416 405.278 17.208C406.473 19 407.07 20.6427 407.07 22.136V41.528C407.07 43.8747 408.115 45.2613 410.206 45.688V47.096L403.23 51C402.291 50.616 401.417 49.9973 400.606 49.144C399.795 48.248 399.39 47.416 399.39 46.648V28.088C399.39 25.6987 399.113 23.8853 398.558 22.648C398.046 21.368 397.107 20.728 395.742 20.728L393.63 21.112V41.528C393.63 44.1307 394.505 45.6027 396.254 45.944V47.352L389.79 51C388.851 50.616 387.977 49.9973 387.166 49.144C386.355 48.248 385.95 47.416 385.95 46.648ZM421.13 7.864V15.48H424.394L423.754 18.616H421.13V41.528C421.13 44.1307 422.005 45.6027 423.754 45.944V47.352L417.29 51C416.351 50.616 415.477 49.9973 414.666 49.144C413.855 48.248 413.45 47.416 413.45 46.648V18.68H410.826L411.466 15.992C412.746 15.992 414.282 15.1387 416.074 13.432C417.909 11.6827 418.997 9.82667 419.338 7.864H421.13ZM427.513 41.656V20.408C427.513 20.1093 429.945 19.064 434.809 17.272C439.673 15.4373 442.467 14.52 443.193 14.52C443.918 14.52 445.006 15.3947 446.457 17.144C447.95 18.8933 448.697 20.472 448.697 21.88V45.048C448.697 45.3893 446.35 46.4773 441.657 48.312C437.006 50.104 434.147 51 433.081 51C432.057 51 430.862 50.0827 429.497 48.248C428.174 46.4133 427.513 44.216 427.513 41.656ZM438.457 45.112C439.267 45.112 440.099 44.7707 440.953 44.088V25.208C440.953 22.0507 439.865 20.472 437.689 20.472C436.835 20.472 436.003 20.792 435.193 21.432V40.376C435.193 43.5333 436.281 45.112 438.457 45.112ZM11.104 112.584C10.0373 112.584 9.12 111.773 8.352 110.152C7.584 108.531 7.2 106.547 7.2 104.2V90.888C7.2 90.0773 9.44 88.6907 13.92 86.728C18.4 84.7227 20.9813 83.72 21.664 83.72C22.176 83.72 22.9013 84.5733 23.84 86.28C24.0533 86.7067 24.352 87.2827 24.736 88.008C25.1627 88.7333 25.504 89.3307 25.76 89.8C26.3147 90.824 27.0187 91.336 27.872 91.336V92.616C27.1893 92.9147 26.272 93.3627 25.12 93.96C22.432 95.4533 20.9813 96.2 20.768 96.2C20.128 96.2 19.3173 94.9413 18.336 92.424C17.3973 89.9067 16.6293 88.648 16.032 88.648C15.264 88.648 14.88 89.288 14.88 90.568V104.84C14.88 106.547 15.264 107.4 16.032 107.4C16.2027 107.4 17.5253 106.845 20 105.736C22.4747 104.627 23.968 104.072 24.48 104.072C25.504 104.072 26.4 104.904 27.168 106.568C27.9787 108.189 28.384 110.28 28.384 112.84V126.472C28.384 127.283 25.9307 128.691 21.024 130.696C16.16 132.659 13.3653 133.64 12.64 133.64C12.3413 133.64 12 133.277 11.616 132.552C11.232 131.827 10.72 130.803 10.08 129.48C9.48267 128.115 8.928 126.984 8.416 126.088C7.94667 125.192 7.28533 124.744 6.432 124.744V123.464C7.11467 123.165 8.01067 122.717 9.12 122.12C11.8507 120.627 13.3227 119.88 13.536 119.88C14.176 119.88 15.072 121.352 16.224 124.296C17.4187 127.24 18.3147 128.712 18.912 128.712C19.3387 128.712 19.744 128.541 20.128 128.2C20.512 127.859 20.704 127.389 20.704 126.792V112.392C20.704 110.472 20.1707 109.512 19.104 109.512C18.7627 109.512 17.4187 110.024 15.072 111.048C12.7253 112.072 11.4027 112.584 11.104 112.584ZM42.0675 89.864V97.48H45.3315L44.6915 100.616H42.0675V123.528C42.0675 126.131 42.9422 127.603 44.6915 127.944V129.352L38.2275 133C37.2888 132.616 36.4142 131.997 35.6035 131.144C34.7928 130.248 34.3875 129.416 34.3875 128.648V100.68H31.7635L32.4035 97.992C33.6835 97.992 35.2195 97.1387 37.0115 95.432C38.8462 93.6827 39.9342 91.8267 40.2755 89.864H42.0675ZM45.314 100.36L52.354 96.52C52.6527 96.6053 52.994 96.7333 53.378 96.904C53.8047 97.032 54.3593 97.4373 55.042 98.12C55.7673 98.8027 56.13 99.5707 56.13 100.424C56.3433 100.339 57.346 99.6773 59.138 98.44C60.9727 97.16 62.146 96.52 62.658 96.52C64.0233 96.52 65.3033 97.416 66.498 99.208C67.6927 101 68.29 102.643 68.29 104.136V107.272L61.698 110.984L60.61 110.088C60.61 106.504 60.2687 104.456 59.586 103.944C58.818 103.389 57.666 103.112 56.13 103.112V123.528C56.13 126.131 57.0047 127.603 58.754 127.944V129.352L52.29 133C51.3513 132.616 50.4767 131.997 49.666 131.144C48.8553 130.248 48.45 129.416 48.45 128.648V107.4C48.45 105.523 48.1087 104.115 47.426 103.176C46.786 102.237 46.082 101.768 45.314 101.768V100.36ZM88.4425 96.52C88.6558 96.52 89.1892 96.8613 90.0425 97.544C90.8958 98.184 91.7492 99.1013 92.6025 100.296C93.4558 101.448 93.8825 102.579 93.8825 103.688V114.44C93.8825 115.208 92.7518 116.147 90.4905 117.256C88.2292 118.365 86.0318 119.283 83.8985 120.008C81.8078 120.691 80.6772 121.032 80.5065 121.032C80.5065 124.317 81.9358 126.344 84.7945 127.112C86.2025 127.453 87.8878 127.624 89.8505 127.624V129.48C82.8532 131.827 79.1198 133 78.6505 133C77.3705 133 76.0692 132.104 74.7465 130.312C73.4238 128.477 72.7625 126.344 72.7625 123.912V102.408C72.7625 102.109 75.1945 101.064 80.0585 99.272C84.9225 97.4373 87.7172 96.52 88.4425 96.52ZM86.2025 106.696C86.2025 105.501 85.9252 104.499 85.3705 103.688C84.8158 102.835 84.1118 102.408 83.2585 102.408C82.4052 102.408 81.4665 102.728 80.4425 103.368V118.152C84.2825 117.085 86.2025 114.781 86.2025 111.24V106.696ZM99.95 128.648V106.952C99.95 105.544 99.6513 104.328 99.054 103.304C98.4567 102.28 97.71 101.768 96.814 101.768V100.36C97.1127 100.317 99.438 99.016 103.79 96.456C104.089 96.5413 104.451 96.6693 104.878 96.84C105.305 96.968 105.859 97.3733 106.542 98.056C107.267 98.7387 107.63 99.528 107.63 100.424C107.886 100.296 108.611 99.8907 109.806 99.208C112.963 97.416 114.841 96.52 115.438 96.52C116.803 96.52 118.083 97.416 119.278 99.208C120.473 101 121.07 102.643 121.07 104.136V123.528C121.07 125.875 122.115 127.261 124.206 127.688V129.096L117.23 133C116.291 132.616 115.417 131.997 114.606 131.144C113.795 130.248 113.39 129.416 113.39 128.648V110.088C113.39 107.699 113.113 105.885 112.558 104.648C112.046 103.368 111.107 102.728 109.742 102.728L107.63 103.112V123.528C107.63 126.131 108.505 127.603 110.254 127.944V129.352L103.79 133C102.851 132.616 101.977 131.997 101.166 131.144C100.355 130.248 99.95 129.416 99.95 128.648ZM127.45 102.472C127.45 102.045 129.797 100.957 134.49 99.208C139.226 97.416 142.127 96.52 143.194 96.52C144.261 96.52 145.434 97.5013 146.714 99.464C147.994 101.384 148.634 103.517 148.634 105.864V126.216C148.634 127.837 147.909 130.141 146.458 133.128C145.007 136.157 143.471 138.803 141.85 141.064C140.229 143.368 139.119 144.52 138.522 144.52C137.455 144.52 136.026 144.2 134.234 143.56C132.442 142.92 130.906 142.28 129.626 141.64L127.77 140.68V138.76H129.946C131.61 138.76 133.509 137.8 135.642 135.88C137.775 134.003 139.546 131.485 140.954 128.328C136.133 130.589 133.359 131.72 132.634 131.72C131.311 131.72 130.117 130.888 129.05 129.224C127.983 127.517 127.45 125.619 127.45 123.528V102.472ZM140.954 108.04C140.954 104.285 139.973 102.408 138.01 102.408C136.986 102.408 136.047 102.749 135.194 103.432V118.152C135.194 121.139 135.663 123.144 136.602 124.168C137.541 125.149 138.991 125.64 140.954 125.64V108.04ZM162.693 89.864V97.48H165.957L165.317 100.616H162.693V123.528C162.693 126.131 163.567 127.603 165.317 127.944V129.352L158.853 133C157.914 132.616 157.039 131.997 156.229 131.144C155.418 130.248 155.013 129.416 155.013 128.648V100.68H152.389L153.029 97.992C154.309 97.992 155.845 97.1387 157.637 95.432C159.471 93.6827 160.559 91.8267 160.901 89.864H162.693ZM169.075 128.648V96.968C169.075 95.816 168.883 95.0053 168.499 94.536C168.115 94.024 167.454 93.768 166.515 93.768V91.976C172.062 89.0747 177.011 86.344 181.363 83.784L182.387 85.832C181.96 86.0453 181.363 86.472 180.595 87.112C179.827 87.7093 179.187 88.328 178.675 88.968C177.395 90.5893 176.755 92.424 176.755 94.472V99.912C181.15 97.6507 183.71 96.52 184.435 96.52C185.8 96.52 187.102 97.3733 188.339 99.08C189.576 100.787 190.195 102.664 190.195 104.712V123.528C190.195 125.875 191.24 127.261 193.331 127.688V129.096L186.355 133C185.416 132.616 184.542 131.997 183.731 131.144C182.92 130.248 182.515 129.416 182.515 128.648V110.088C182.515 105.907 181.747 103.539 180.211 102.984C179.486 102.728 178.334 102.6 176.755 102.6V123.528C176.755 126.131 177.63 127.603 179.379 127.944V129.352L172.915 133C171.976 132.616 171.102 131.997 170.291 131.144C169.48 130.248 169.075 129.416 169.075 128.648Z" fill="black"/>
</svg>
