<svg width="65" height="71" viewBox="0 0 65 71" fill="none" xmlns="http://www.w3.org/2000/svg">
<path d="M24.2949 0C37.7127 0 48.5898 10.8772 48.5898 24.2949C48.5898 37.7127 37.7127 48.5898 24.2949 48.5898C10.8772 48.5898 0 37.7127 0 24.2949C4.12323e-05 10.8772 10.8772 4.1235e-05 24.2949 0ZM24.2354 5.59766C13.942 5.59766 5.5969 13.942 5.59668 24.2354C5.59668 34.5289 13.9418 42.874 24.2354 42.874C34.5287 42.8738 42.873 34.5288 42.873 24.2354C42.8728 13.9421 34.5286 5.59784 24.2354 5.59766Z" fill="black"/>
<rect x="35.6074" y="40.9277" width="7.14559" height="37.9907" transform="rotate(-37.6679 35.6074 40.9277)" fill="black"/>
</svg>
